<?xml version="1.0" encoding="utf-8"?>
<!-- Generator: Adobe Illustrator 25.4.1, SVG Export Plug-In . SVG Version: 6.00 Build 0)  -->
<svg version="1.1" id="Layer_1" xmlns="http://www.w3.org/2000/svg" xmlns:xlink="http://www.w3.org/1999/xlink" x="0px" y="0px"
	 viewBox="0 0 360 360" style="enable-background:new 0 0 360 360;" xml:space="preserve">
<style type="text/css">
	.st0{fill:#8679A3;}
	.st1{fill:none;stroke:#8679A3;stroke-width:14;stroke-miterlimit:10;}
</style>
<g>
	<g>
		<g>
			<path class="st0" d="M167.97,313.18c-42.74,0-81.7-23.5-101.67-61.33l15.92-8.4c16.84,31.91,49.7,51.74,85.75,51.74V313.18z"/>
		</g>
		<g>
			<polygon class="st0" points="62.08,198.28 109.48,259.44 76.73,250.92 53.09,275.14 			"/>
		</g>
	</g>
	<g>
		<g>
			<path class="st0" d="M71.08,176.55h-18c0-42.74,23.5-81.7,61.33-101.67l8.4,15.92C90.9,107.64,71.08,140.5,71.08,176.55z"/>
		</g>
		<g>
			<polygon class="st0" points="167.97,70.65 106.81,118.06 115.34,85.3 91.11,61.67 			"/>
		</g>
	</g>
	<g>
		<g>
			<path class="st0" d="M236.81,299.95l-8.4-15.92c31.91-16.84,51.74-49.7,51.74-85.75h18
				C298.14,241.03,274.64,279.98,236.81,299.95z"/>
		</g>
		<g>
			<polygon class="st0" points="183.25,304.18 260.11,313.17 235.88,289.53 244.41,256.78 			"/>
		</g>
	</g>
	<g>
		<g>
			<path class="st0" d="M269,131.39c-16.84-31.91-49.7-51.74-85.75-51.74v-18c42.74,0,81.7,23.5,101.67,61.33L269,131.39z"/>
		</g>
		<g>
			<polygon class="st0" points="289.14,176.55 298.13,99.69 274.49,123.91 241.74,115.39 			"/>
		</g>
	</g>
</g>
<g>
	<path class="st0" d="M160.99,185.73l0.97-0.97c24.76-0.78,35.87-8.77,35.87-21.64v-0.39c0-10.92-8.38-18.52-22.22-18.52
		c-12.28,0-22.42,5.46-31.78,15.4l-14.62-15.6c11.31-12.87,25.93-21.64,46.98-21.64c27.29,0,45.81,15.21,45.81,39.57v0.39
		c0,24.76-17.74,35.68-39.38,39.38l-1.95,15.6h-15.79L160.99,185.73z M159.23,233.69h26.12v26.9h-26.12V233.69z"/>
</g>
</svg>
