<?xml version="1.0" encoding="utf-8"?>
<!-- Generator: Adobe Illustrator 25.4.1, SVG Export Plug-In . SVG Version: 6.00 Build 0)  -->
<svg version="1.1" id="Layer_1" xmlns="http://www.w3.org/2000/svg" xmlns:xlink="http://www.w3.org/1999/xlink" x="0px" y="0px"
	 viewBox="0 0 360 360" style="enable-background:new 0 0 360 360;" xml:space="preserve">
<style type="text/css">
	.st0{fill:#3E87CB;}
	.st1{fill:#3E87CB;stroke:#3E87CB;stroke-width:12;stroke-miterlimit:10;}
	.st2{fill:#F69339;}
	.st3{fill:none;stroke:#F69339;stroke-width:14;stroke-miterlimit:10;}
	.st4{fill:#FFFFFF;}
	.st5{fill:#F68D00;}
</style>
<g>
	<path class="st0" d="M174.58,290.89c-61.7,0-111.9-50.2-111.9-111.9c0-61.7,50.2-111.9,111.9-111.9s111.9,50.2,111.9,111.9
		C286.48,240.69,236.28,290.89,174.58,290.89z M174.58,79.1c-55.08,0-99.9,44.81-99.9,99.9c0,55.08,44.81,99.9,99.9,99.9
		s99.9-44.81,99.9-99.9C274.48,123.91,229.66,79.1,174.58,79.1z"/>
</g>
<g>
	<path class="st0" d="M164.8,99.58h19.55v18.88H164.8V99.58z M165.92,143.56h17.1V258.4h-17.1V143.56z"/>
</g>
</svg>
