<svg xmlns="http://www.w3.org/2000/svg" width="1278.2" height="311.7" viewBox="0 0 1278.2 311.7">
  <g id="Group_11149" data-name="Group 11149" transform="translate(-21 -145)">
    <g id="BCSC" transform="translate(98.3 199.7)">
      <g id="Group_11140" data-name="Group 11140">
        <path id="Path_26209" data-name="Path 26209" d="M690.4,41.8c5.6-2.5,11.4-7.3,11.4-16.6V25a15.922,15.922,0,0,0-4.6-11.5c-4.1-4-10.6-6.4-18.7-6.4H648V79h31.9c15.7,0,26-7.3,26-19.6v-.2C705.8,49.3,698.9,44.4,690.4,41.8ZM655.9,14.5h21.8c10.2,0,15.9,4.6,15.9,11.7v.2c0,8.4-6.8,12.8-16.5,12.8H655.9Zm41.7,44.4c0,8-6.8,12.8-17.6,12.8H655.9V46.4h22.6c12.5,0,19.1,4.5,19.1,12.3Zm51.1,13.8c-15.8,0-27.8-13-27.8-29.6v-.2c0-16.5,11.9-29.4,27.8-29.4,9.7,0,16.5,4.1,22.5,9.8l5.5-5.9c-7.2-6.8-15-11.4-28-11.4-21.1,0-36.3,16.8-36.3,37.1v.2c0,20.6,15.3,36.9,36,36.9,13,0,21.2-5,28.7-12.6l-5.3-5.2C765,68.9,758.5,72.7,748.7,72.7Zm62.6-33.5c-15.8-3.4-19.5-7.2-19.5-13.9V25c0-6.5,5.9-11.6,15.3-11.6,7.4,0,14,2.4,20.7,7.8l4.7-6.3a37.741,37.741,0,0,0-25.2-8.8c-13.6,0-23.6,8.3-23.6,19.6V26c0,11.8,7.6,17.1,24.1,20.7,15.1,3.2,18.6,7,18.6,13.6v.2c0,7.1-6.4,12.2-16,12.2-9.9,0-17.1-3.4-24.6-10.1l-5,5.9c8.6,7.7,17.9,11.5,29.3,11.5,14.2,0,24.5-8,24.5-20.3v-.2C834.6,48.5,827.2,42.7,811.3,39.2Zm89.8,23.1c-6.9,6.6-13.3,10.4-23.2,10.4-15.8,0-27.8-13-27.8-29.6v-.2c0-16.5,11.9-29.4,27.8-29.4,9.7,0,16.5,4.1,22.5,9.8l5.5-5.9C898.8,10.6,891,6,878,6c-21.1,0-36.3,16.8-36.3,37.1v.2c0,20.6,15.3,36.9,36,36.9,13,0,21.2-5,28.7-12.6Z" fill="#52555a"/>
      </g>
    </g>
    <rect id="Rectangle_5739" data-name="Rectangle 5739" width="704.3" height="311.7" transform="translate(22 145)" fill="none"/>
    <path id="Path_26210" data-name="Path 26210" d="M184.4,83.9h11.3l2.5,5.7h3.2l-10-22.1h-2.6l-10,22.1h3.1Zm1.2-2.7,4.5-10,4.5,10Zm22.2,8.4h-2.9v-22h2.9l7.7,11.5,7.7-11.5h2.9v22h-3V72.8l-7.4,10.9h-.4l-.1-.1-7.3-10.8-.1,16.8Zm40.3,0H231.9v-22h16v2.7H234.8v6.8h11.7v2.7H234.8v7H248v2.8Zm7.1-8.4h5.7l6.2,8.3h3.6L264,80.7c3.6-.8,5.6-3.1,5.6-6.5a6.2,6.2,0,0,0-1.7-4.4,8.92,8.92,0,0,0-6.3-2.2h-9.5v22h3l.1-8.4Zm0-10.8h6.4c3.3,0,5.2,1.5,5.2,4s-2.1,4.1-5.3,4.1h-6.3V70.4Zm19.6,9.7V67.6h3v22h-3Zm7.8-1.5a11.144,11.144,0,0,1,11.1-11.4,11.671,11.671,0,0,1,8.6,3.5l.2.2-2,2.2-.2-.2a9.054,9.054,0,0,0-6.6-2.9c-4.6,0-8,3.7-8,8.5,0,4.9,3.5,8.7,8,8.7,3,0,4.8-1.2,6.7-3l.2-.2,2,1.9-.2.2a11.561,11.561,0,0,1-8.8,3.8C287.3,89.9,282.6,85.1,282.6,78.6Zm27.5,5.3h11.3l2.5,5.7h3.2l-10-22.1h-2.6l-10,22.1h3.1Zm1.2-2.7,4.5-10,4.5,10Zm22.2,8.4h-2.9v-22h2.7l.1.1,13,16.6V67.6h2.9v22H347l-.1-.1-13.4-17Zm34.4-5.7h11.3l2.5,5.7h3.2l-10-22.1h-2.6l-10,22.1h3.1Zm1.2-2.7,4.5-10,4.5,10Zm17.2-2.6a11.144,11.144,0,0,1,11.1-11.4,11.671,11.671,0,0,1,8.6,3.5l.2.2-2,2.2-.2-.2a9.054,9.054,0,0,0-6.6-2.9c-4.6,0-8,3.7-8,8.5,0,4.9,3.5,8.7,8,8.7,3,0,4.8-1.2,6.7-3l.2-.2,2,1.9-.2.2a11.561,11.561,0,0,1-8.8,3.8C391,89.9,386.3,85.1,386.3,78.6Zm27.5,5.3h11.3l2.5,5.7h3.2l-10-22.1h-2.6l-10,22.1h3.1Zm1.2-2.7,4.5-10,4.5,10Zm38.7-2.7c0-6.3-4.9-10.9-11.7-10.9h-7.7v22H442C448.8,89.6,453.7,84.9,453.7,78.5Zm-11.6,8.3h-4.8V70.4h4.8c5.1,0,8.6,3.4,8.6,8.3C450.7,83.4,447.1,86.8,442.1,86.8Zm32.6,2.8H458.5v-22h16v2.7H461.4v6.8h11.7v2.7H461.4v7h13.2v2.8Zm7,0h-2.9v-22h2.9l7.7,11.5,7.7-11.5H500v22h-3V72.8l-7.4,10.9h-.4l-.1-.1-7.3-10.8V89.6h-.1Zm30.7-8.7-9.2-13.3h3.6l.1.1,7,10.4,7.2-10.5h3.5l-9.2,13.3v8.7h-3ZM190,131a11.164,11.164,0,0,0,11.2-11.4A11.02,11.02,0,0,0,190,108.3a11.164,11.164,0,0,0-11.2,11.4A11.02,11.02,0,0,0,190,131Zm0-20a8.33,8.33,0,0,1,8.2,8.6c0,4.9-3.5,8.5-8.1,8.5-4.7,0-8.2-3.7-8.2-8.7A8.016,8.016,0,0,1,190,111Zm18.6.4v7.1h11.6v2.7H208.6v9.3h-3v-22h15.9v2.8l-12.9.1Zm36-3.1a11.164,11.164,0,0,0-11.2,11.4A11.019,11.019,0,0,0,244.6,131a11.164,11.164,0,0,0,11.2-11.4A10.961,10.961,0,0,0,244.6,108.3Zm0,19.9c-4.7,0-8.2-3.7-8.2-8.7,0-4.9,3.5-8.5,8.1-8.5,4.7,0,8.2,3.7,8.2,8.6S249.3,128.2,244.6,128.2Zm15.6-19.6v22h3V123h4.9c4.3,0,8.7-2.3,8.7-7.3,0-4.3-3.3-7.1-8.3-7.1Zm8,11.7h-5v-8.9h5.2c3.5,0,5.5,1.6,5.5,4.5C273.8,118.5,271.6,120.3,268.2,120.3Zm26.9-11.7h3v22h-3V121H283.3v9.7h-3v-22h3v9.5h11.8Zm13.5,9.4v-6.6h-7.2v-2.8h17.4v2.8h-7.2v19.2h-3V118Zm28.5-9.4h3v22h-3V121H325.2v9.7h-3v-22h3v9.5h11.9Zm23,16.3,2.5,5.7h3.2l-10-22.1h-2.6l-10,22.1h3.1l2.5-5.7Zm-1.2-2.7h-9l4.5-10Zm13-13.6v19.2H384v2.8H369v-22Zm33.6,22V113.8l-7.4,10.9h-.4l-.1-.1-7.3-10.8v16.8h-2.9v-22h2.9l7.7,11.5,7.7-11.5h2.9v22Zm7.4-10.9A11.019,11.019,0,0,0,424.1,131a11.164,11.164,0,0,0,11.2-11.4,11.2,11.2,0,1,0-22.4.1Zm11.2,8.5c-4.7,0-8.2-3.7-8.2-8.7,0-4.9,3.5-8.5,8.1-8.5a8.33,8.33,0,0,1,8.2,8.6C432.2,124.5,428.7,128.2,424.1,128.2Zm18.6-.4h12.1v2.8h-15v-22h3v19.2Zm35.8-8.2a11.019,11.019,0,0,0-11.2-11.3,11.164,11.164,0,0,0-11.2,11.4A11.019,11.019,0,0,0,467.3,131,11.227,11.227,0,0,0,478.5,119.6Zm-11.2,8.6c-4.7,0-8.2-3.7-8.2-8.7,0-4.9,3.5-8.5,8.1-8.5a8.33,8.33,0,0,1,8.2,8.6C475.4,124.5,471.9,128.2,467.3,128.2Zm25.6,2.8c-6.6,0-11.2-4.6-11.2-11.3a11.062,11.062,0,0,1,11-11.4,11.646,11.646,0,0,1,8.2,2.9l.2.2-1.9,2.2-.2-.2a9.042,9.042,0,0,0-6.4-2.4c-4.4,0-7.9,3.7-7.9,8.5,0,5.2,3.3,8.7,8.2,8.7a9.556,9.556,0,0,0,5.9-2v-4.9h-6.5v-2.7h9.4v8.9l-.1.1A12.438,12.438,0,0,1,492.9,131Zm19.5-.4v-8.7l-9.2-13.3h3.6l.1.1,7,10.4,7.2-10.5h3.5l-9.2,13.3v8.7Zm-326.6,19h-5.1V163h1.8v-4.6h3c2.6,0,5.3-1.4,5.3-4.4h0C190.9,151.3,188.9,149.6,185.8,149.6Zm-3.3,1.7h3.2c2.2,0,3.4,1,3.4,2.7h0c0,1.6-1.4,2.8-3.5,2.8h-3.1v-5.5Zm16.4,1.6h.1v1.8h-.2c-2.2,0-3.7,1.7-3.7,4.3v4h-1.7V153h1.7v2.1a4.2,4.2,0,0,1,3.6-2.3C198.8,152.9,198.8,152.9,198.9,152.9Zm6.6,0a5.164,5.164,0,0,0-5.2,5.2h0a5.2,5.2,0,0,0,10.4,0h0A5.1,5.1,0,0,0,205.5,152.9Zm0,8.8a3.483,3.483,0,0,1-3.4-3.6h0a3.422,3.422,0,0,1,3.4-3.6,3.565,3.565,0,0,1,3.5,3.6h0A3.5,3.5,0,0,1,205.5,161.7Zm9.9-8.6h3.1v1.6h-3.1v5.5a1.326,1.326,0,0,0,1.5,1.5,2.768,2.768,0,0,0,1.3-.3l.2-.1v1.5h-.1a3.661,3.661,0,0,1-1.8.4,2.59,2.59,0,0,1-2.9-2.9v-5.7h-1.3V153h1.3v-2.9h1.7v3Zm9.4-.2a5.21,5.21,0,0,0,.2,10.4,5.157,5.157,0,0,0,4.1-1.9l.1-.1-1.1-1-.1.1a3.946,3.946,0,0,1-3,1.3,3.335,3.335,0,0,1-3.3-2.9h7.7v-.6C229.5,155,227.6,152.9,224.8,152.9Zm0,1.5a2.92,2.92,0,0,1,2.9,3h-5.9A3.14,3.14,0,0,1,224.8,154.4Zm14.9,5.8,1.1,1.1-.1.1a5.187,5.187,0,0,1-9.2-3.3h0a5.143,5.143,0,0,1,5.1-5.2,4.907,4.907,0,0,1,4,1.8l.1.1-1.1,1.2-.1-.1a3.81,3.81,0,0,0-2.8-1.4,3.4,3.4,0,0,0-3.3,3.6h0a3.483,3.483,0,0,0,3.4,3.6,4.189,4.189,0,0,0,2.9-1.4Zm5.9-7.1h3.1v1.6h-3.1v5.5a1.326,1.326,0,0,0,1.5,1.5,2.768,2.768,0,0,0,1.3-.3l.2-.1v1.5h-.1a3.661,3.661,0,0,1-1.8.4,2.59,2.59,0,0,1-2.9-2.9v-5.7h-1.3V153h1.3v-2.9h1.7v3Zm5.4-3.8h1.9v1.9H251Zm.1,9.9v-6.1h1.7v10h-1.7Zm13.9-2.3v6.2h-1.7v-5.8c0-1.7-.9-2.8-2.5-2.8a2.759,2.759,0,0,0-2.8,2.9v5.7h-1.7v-10H258v1.4a3.886,3.886,0,0,1,3.2-1.6C263.5,152.9,265,154.4,265,156.9Zm10.9-2.4a4.8,4.8,0,0,0-3.7-1.7,4.688,4.688,0,0,0-4.7,4.7h0a4.688,4.688,0,0,0,4.7,4.7,4.591,4.591,0,0,0,3.7-1.8v.7c0,2.1-1.2,3.3-3.4,3.3a5.991,5.991,0,0,1-3.6-1.2l-.1-.1-.8,1.4.1.1a7.749,7.749,0,0,0,4.5,1.4,5.622,5.622,0,0,0,3.8-1.3,4.459,4.459,0,0,0,1.3-3.5V153H276l-.1,1.5Zm-3.4,6.2a3.159,3.159,0,0,1-3.2-3.2h0a3.077,3.077,0,0,1,3.2-3.1,3.246,3.246,0,0,1,3.4,3.1h0A3.263,3.263,0,0,1,272.5,160.7Zm23.5-1.4h0c0,2.3-1.9,3.9-4.6,3.9a8.235,8.235,0,0,1-5.5-2.1l-.1-.1,1.1-1.3.1.1a5.962,5.962,0,0,0,4.4,1.8c1.6,0,2.8-.9,2.8-2.1h0c0-1.1-.5-1.8-3.3-2.4-2.7-.6-4.5-1.5-4.5-3.9h0c0-2.2,1.9-3.7,4.5-3.7a7.057,7.057,0,0,1,4.7,1.6l.1.1-1,1.4-.1-.1a5.369,5.369,0,0,0-3.7-1.4c-1.6,0-2.7.8-2.7,2h0c0,1.1.5,1.8,3.5,2.4C294.6,156.2,296,157.3,296,159.3Zm2.9-2.6v-3.6h1.7v10h-1.7Zm-.1-7.4h2v1.9h-1.9v-1.9Zm12.9,5.2a4.8,4.8,0,0,0-3.7-1.7,4.688,4.688,0,0,0-4.7,4.7h0a4.688,4.688,0,0,0,4.7,4.7,4.591,4.591,0,0,0,3.7-1.8v.7c0,2.1-1.2,3.3-3.4,3.3a5.991,5.991,0,0,1-3.6-1.2l-.1-.1-.8,1.4.1.1a7.749,7.749,0,0,0,4.5,1.4,5.622,5.622,0,0,0,3.8-1.3,4.459,4.459,0,0,0,1.3-3.5V153h-1.7l-.1,1.5Zm-3.4,6.2a3.159,3.159,0,0,1-3.2-3.2h0a3.077,3.077,0,0,1,3.2-3.1,3.246,3.246,0,0,1,3.4,3.1h0A3.323,3.323,0,0,1,308.3,160.7Zm17.1-3.8v6.2h-1.7v-5.8a2.5,2.5,0,0,0-2.5-2.8,2.759,2.759,0,0,0-2.8,2.9v5.7h-1.7v-14h1.7v5.4a3.886,3.886,0,0,1,3.2-1.6C323.9,152.9,325.4,154.4,325.4,156.9Zm5.2-3.8h3.1v1.6h-3.1v5.5a1.326,1.326,0,0,0,1.5,1.5,2.768,2.768,0,0,0,1.3-.3l.2-.1v1.5h-.1a3.661,3.661,0,0,1-1.8.4,2.59,2.59,0,0,1-2.9-2.9v-5.7h-1.4V153h1.4v-2.9h1.7l.1,3Zm5.6,9v-1.3h2V163h-2Zm12.8-.7h8.1V163h-9.9V149.6H357v1.6h-8v4.2h7.2V157H349Zm25.7-4.5V163H373v-5.8c0-1.8-.9-2.8-2.4-2.8-1.3,0-2.5.9-2.5,2.9V163h-1.7v-5.8c0-1.7-.9-2.7-2.4-2.7a2.664,2.664,0,0,0-2.6,2.9v5.7h-1.7v-10h1.7v1.3a3.534,3.534,0,0,1,3-1.5,3.245,3.245,0,0,1,3.1,1.8,4.052,4.052,0,0,1,3.4-1.8C373.2,152.9,374.7,154.4,374.7,156.9Zm8.5-4a4.376,4.376,0,0,0-3.6,1.9v-1.7h-1.7v13h1.7v-4.6a4.276,4.276,0,0,0,3.6,1.8,4.9,4.9,0,0,0,4.8-5.2h0A4.9,4.9,0,0,0,383.2,152.9Zm-.2,1.5a3.345,3.345,0,0,1,3.3,3.6h0a3.289,3.289,0,0,1-3.3,3.6,3.482,3.482,0,0,1-3.4-3.6h0A3.482,3.482,0,0,1,383,154.4Zm12.4-1.5a5.164,5.164,0,0,0-5.2,5.2h0a5.2,5.2,0,0,0,10.4,0h0A5.164,5.164,0,0,0,395.4,152.9Zm0,8.8a3.483,3.483,0,0,1-3.4-3.6h0a3.422,3.422,0,0,1,3.4-3.6,3.565,3.565,0,0,1,3.5,3.6h0A3.632,3.632,0,0,1,395.4,161.7Zm19.7-8.6h1.8l-3.5,10h-1.5l-2.5-7.4-2.5,7.4h-1.5l-3.5-10h1.8v.1l2.4,7.4,2.5-7.5H410v.1l2.5,7.4Zm8-.2a5.21,5.21,0,0,0,.2,10.4,5.157,5.157,0,0,0,4.1-1.9l.1-.1-1.1-1-.1.1a3.946,3.946,0,0,1-3,1.3,3.335,3.335,0,0,1-3.3-2.9h7.7v-.6C427.7,155,425.9,152.9,423.1,152.9Zm-.1,1.5a2.92,2.92,0,0,1,2.9,3H420A3.214,3.214,0,0,1,423,154.4Zm13-1.5h.1v1.8h-.3c-2.2,0-3.7,1.7-3.7,4.3v4h-1.7V153h1.7v2.1a4.2,4.2,0,0,1,3.6-2.3A.367.367,0,0,0,436,152.9Zm2.2-3.6h2v1.9h-1.9v-1.9Zm.1,9.3v-5.5H440v10h-1.7Zm13.9-1.7v6.2h-1.7v-5.8a2.5,2.5,0,0,0-2.5-2.8,2.759,2.759,0,0,0-2.8,2.9v5.7h-1.7v-10h1.7v1.4a3.886,3.886,0,0,1,3.2-1.6C450.7,152.9,452.2,154.4,452.2,156.9Zm10.9-2.4a4.75,4.75,0,0,0-3.6-1.7,4.688,4.688,0,0,0-4.7,4.7h0a4.688,4.688,0,0,0,4.7,4.7,4.591,4.591,0,0,0,3.7-1.8v.7c0,2.1-1.2,3.3-3.4,3.3a6.513,6.513,0,0,1-3.7-1.2l-.1-.1-.8,1.4.1.1a7.749,7.749,0,0,0,4.5,1.4,5.622,5.622,0,0,0,3.8-1.3,4.838,4.838,0,0,0,1.3-3.5V153h-1.7l-.1,1.5Zm-3.4,6.2a3.159,3.159,0,0,1-3.2-3.2h0a3.077,3.077,0,0,1,3.2-3.1,3.246,3.246,0,0,1,3.4,3.1h0A3.263,3.263,0,0,1,459.7,160.7Zm16,.7h7.4v1.7h-9.2V149.7h1.8v11.7Zm9.8-12.1h1.9v1.9h-1.9Zm.1,6.5V153h1.7v10h-1.7Zm12.2-2.7h1.9l-.1.2-4.3,9.9h-1.5l-4.3-10h1.9l3.2,7.8Zm7.8-.2a5.21,5.21,0,0,0,.2,10.4,5.157,5.157,0,0,0,4.1-1.9l.1-.1-1.1-1-.1.1a3.946,3.946,0,0,1-3,1.3,3.335,3.335,0,0,1-3.3-2.9h7.7v-.6C510.3,155,508.4,152.9,505.6,152.9Zm0,1.5a2.92,2.92,0,0,1,2.9,3h-5.9A3.071,3.071,0,0,1,505.6,154.4Zm14.2,5.7h0c0,1.9-1.4,3.1-3.6,3.1a6.877,6.877,0,0,1-4.1-1.5l-.1-.1.9-1.3.1.1a5.59,5.59,0,0,0,3.3,1.2c1.1,0,1.9-.6,1.9-1.4h0c0-.9-1-1.2-2.3-1.6-1.4-.4-3.3-.9-3.3-2.9h0c0-1.7,1.4-2.9,3.4-2.9a6.888,6.888,0,0,1,3.6,1.1l.1.1-.8,1.3-.1-.1a5.144,5.144,0,0,0-2.8-.9c-1,0-1.7.5-1.7,1.3h0c0,.8,1.1,1.2,2.4,1.5h0C517.8,157.6,519.8,158.2,519.8,160.1Zm2.5,1.7v-1h2V163h-2Z" transform="translate(98.3 199.7)" fill="#53565a"/>
    <g id="Group_11141" data-name="Group 11141" transform="translate(98.3 199.7)">
      <path id="Path_26211" data-name="Path 26211" d="M157.4,101.2A77.9,77.9,0,1,1,79.5,23.3,77.929,77.929,0,0,1,157.4,101.2Z" fill="#fff"/>
      <path id="Path_26212" data-name="Path 26212" d="M118.5,168.7a70.75,70.75,0,0,1-10,4.8L84.2,110.6ZM86.8,111.8l33.1,56a71.118,71.118,0,0,0,7.2-5Zm3.8,66.5-8.9-57.1,3.9,57.6C87.4,178.7,89,178.5,90.6,178.3Zm1.6-62.5,36.3,46c1.4-1.1,2.7-2.2,4-3.4Zm0-4.6,46.4,40.9c1.4-1.7,2.8-3.4,4.1-5.2ZM83.3,74.4,92,24.3c-1.1-.2-2.2-.3-3.2-.4Zm-.4,37.7,14.3,65a83.03,83.03,0,0,0,9.7-2.9Zm74.3-16.7a76.382,76.382,0,0,0-2-12.7l-66.5,17ZM79.5,74.1l1.4-50.8H77.6Zm19.4,29.2,57.8,9c.2-1.7.4-3.4.6-5.2Zm-4.3,1.1,60.3,16.5a49.553,49.553,0,0,0,1.4-6.9Zm-6.8,1.5,55.9,39.5a72.528,72.528,0,0,0,6.3-10.8Zm1.6-1.1L150.6,133a76.023,76.023,0,0,0,3.8-10.4ZM82.6,88.7l19.7-62.1c-2.8-.8-5.6-1.5-8.5-2.1ZM92,93.8l56.5-29c-1.2-2.2-2.5-4.4-3.9-6.5Zm61.6-17L100.5,94.9,154.8,81ZM135.7,47.2c-.7-.7-1.4-1.5-2.2-2.2L99.3,81.4ZM76.4,179l1.5-50.6-4.7,50.4C74.2,178.9,75.3,179,76.4,179Zm81-73.6c.1-1.4.1-2.8.1-4.2s0-2.7-.1-4.1L93,101.2ZM82.6,23.3,81,79.3l6-55.7C85.6,23.5,84.1,23.4,82.6,23.3Zm10.8,91.2,40.4,42.6c1.3-1.2,2.5-2.5,3.7-3.8Zm-2.8-18L153,75.1c-1.1-3-2.3-5.9-3.7-8.8ZM87.2,86.3l30.7-52.9c-1.8-1-3.7-2-5.6-2.9Zm8.3,3,48.1-32.5c-1-1.4-2-2.7-3-4.1Zm-8.6,1L126.5,39c-2.3-1.7-4.7-3.3-7.1-4.8Zm-2-3.1,25.8-57.4c-2.2-1-4.5-1.8-6.8-2.6Zm12.6-1.7,42-34.1c-.8-1-1.7-2-2.6-3Zm-6.2,1.9,41-43.6c-1.4-1.3-2.9-2.5-4.4-3.7Zm-6.7,40.5L92.4,178c1.1-.2,2.1-.4,3.2-.6ZM56.4,114.3,10.9,138.1c.5,1,1.1,1.9,1.7,2.9Zm9.4-3.7L13.5,142.5a61.779,61.779,0,0,0,3.6,5.3Zm-7.5,7.9L18.2,149.1c.7.8,1.3,1.7,2,2.5Zm8-11.4L7,129.7a72.182,72.182,0,0,0,3.1,6.9Zm2.5-4L2.1,109.7A72.028,72.028,0,0,0,4,120.2Zm2.9,7.7L26.9,158.5a75.748,75.748,0,0,0,7,5.7Zm-7.8-4.6L4.4,121.9c.6,2.1,1.2,4.1,2,6.2Zm11,12.5-18.2,57a49.444,49.444,0,0,0,5.5,1.5ZM51,173.6c1.4.5,2.7,1,4.1,1.5L72,122ZM75.9,23.3a73.4,73.4,0,0,0-9.3,1L78.3,89Zm1.5,92.1L64,177.5a64.585,64.585,0,0,0,7.5,1.1Zm2.5,3.5L78.1,179h1.4c1.5,0,3-.1,4.4-.1ZM52.1,103,1.8,104.8c.1,1.1.1,2.1.2,3.2ZM21.3,152.9c1.4,1.6,2.8,3,4.3,4.5L67.3,113Zm51-40L35.2,165.3a80.021,80.021,0,0,0,6.9,4.3Zm.1,3.6L43.7,170.4a49.825,49.825,0,0,0,5.7,2.7ZM65,24.6c-2.5.5-4.9,1.1-7.3,1.8L76.1,87Zm.3,53.1-24.7-44c-.9.5-1.8,1.1-2.7,1.7Zm6.4.7L56,26.9c-1.2.4-2.5.8-3.7,1.3Zm2.7,11.9L50.7,28.8a61.816,61.816,0,0,0-8.6,4.1Zm-6.4.1L25,45.6c-1.6,1.6-3.2,3.3-4.6,5ZM1.8,96c-.1,1.7-.2,3.4-.2,5.1V103l62.6-2.3Zm65.1,3.3L3.2,85.6A64.957,64.957,0,0,0,2,94.3Zm-5.4-7.5-50-28.6c-.8,1.4-1.6,2.9-2.3,4.4Zm2.9,3.3L8.5,69.2a64.351,64.351,0,0,0-2.4,6.1Zm.7,2.1L5.5,76.9a55.6,55.6,0,0,0-1.9,7Zm4.8-9.3L36.4,36.3c-1.8,1.2-3.6,2.5-5.2,3.8Zm1.6,7.6L19.2,51.9a95.9,95.9,0,0,0-6.9,9.8Zm-5.6-9.8-36-44.5c-1.2,1-2.4,2.1-3.6,3.2Z" fill="#351f65"/>
    </g>
    <rect id="Rectangle_5740" data-name="Rectangle 5740" width="704.3" height="311.7" transform="translate(21 145)" fill="none"/>
    <path id="Path_26213" data-name="Path 26213" d="M183.4,83.9h11.3l2.5,5.7h3.2l-10-22.1h-2.6l-10,22.1h3.1Zm1.2-2.7,4.5-10,4.5,10Zm22.2,8.4h-2.9v-22h2.9l7.7,11.5,7.7-11.5h2.9v22h-3V72.8l-7.4,10.9h-.4l-.1-.1-7.3-10.8-.1,16.8Zm40.3,0H230.9v-22h16v2.7H233.8v6.8h11.7v2.7H233.8v7H247v2.8Zm7.1-8.4h5.7l6.2,8.3h3.6L263,80.7c3.6-.8,5.6-3.1,5.6-6.5a6.2,6.2,0,0,0-1.7-4.4,8.92,8.92,0,0,0-6.3-2.2h-9.5v22h3l.1-8.4Zm0-10.8h6.4c3.3,0,5.2,1.5,5.2,4s-2.1,4.1-5.3,4.1h-6.3V70.4Zm19.6,9.7V67.6h3v22h-3Zm7.8-1.5a11.144,11.144,0,0,1,11.1-11.4,11.671,11.671,0,0,1,8.6,3.5l.2.2-2,2.2-.2-.2a9.054,9.054,0,0,0-6.6-2.9c-4.6,0-8,3.7-8,8.5,0,4.9,3.5,8.7,8,8.7,3,0,4.8-1.2,6.7-3l.2-.2,2,1.9-.2.2a11.561,11.561,0,0,1-8.8,3.8C286.3,89.9,281.6,85.1,281.6,78.6Zm27.5,5.3h11.3l2.5,5.7h3.2l-10-22.1h-2.6l-10,22.1h3.1Zm1.2-2.7,4.5-10,4.5,10Zm22.2,8.4h-2.9v-22h2.7l.1.1,13,16.6V67.6h2.9v22H346l-.1-.1-13.4-17Zm34.4-5.7h11.3l2.5,5.7h3.2l-10-22.1h-2.6l-10,22.1h3.1Zm1.2-2.7,4.5-10,4.5,10Zm17.2-2.6a11.144,11.144,0,0,1,11.1-11.4,11.671,11.671,0,0,1,8.6,3.5l.2.2-2,2.2-.2-.2a9.054,9.054,0,0,0-6.6-2.9c-4.6,0-8,3.7-8,8.5,0,4.9,3.5,8.7,8,8.7,3,0,4.8-1.2,6.7-3l.2-.2,2,1.9-.2.2a11.561,11.561,0,0,1-8.8,3.8C390,89.9,385.3,85.1,385.3,78.6Zm27.5,5.3h11.3l2.5,5.7h3.2l-10-22.1h-2.6l-10,22.1h3.1Zm1.2-2.7,4.5-10,4.5,10Zm38.7-2.7c0-6.3-4.9-10.9-11.7-10.9h-7.7v22H441C447.8,89.6,452.7,84.9,452.7,78.5Zm-11.6,8.3h-4.8V70.4h4.8c5.1,0,8.6,3.4,8.6,8.3C449.7,83.4,446.1,86.8,441.1,86.8Zm32.6,2.8H457.5v-22h16v2.7H460.4v6.8h11.7v2.7H460.4v7h13.2v2.8Zm7,0h-2.9v-22h2.9l7.7,11.5,7.7-11.5H499v22h-3V72.8l-7.4,10.9h-.4l-.1-.1-7.3-10.8V89.6h-.1Zm30.7-8.7-9.2-13.3h3.6l.1.1,7,10.4,7.2-10.5h3.5l-9.2,13.3v8.7h-3V80.9ZM189,131a11.164,11.164,0,0,0,11.2-11.4A11.02,11.02,0,0,0,189,108.3a11.164,11.164,0,0,0-11.2,11.4A11.02,11.02,0,0,0,189,131Zm0-20a8.33,8.33,0,0,1,8.2,8.6c0,4.9-3.5,8.5-8.1,8.5-4.7,0-8.2-3.7-8.2-8.7A8.016,8.016,0,0,1,189,111Zm18.6.4v7.1h11.6v2.7H207.6v9.3h-3v-22h15.9v2.8l-12.9.1Zm36-3.1a11.164,11.164,0,0,0-11.2,11.4A11.019,11.019,0,0,0,243.6,131a11.164,11.164,0,0,0,11.2-11.4A10.961,10.961,0,0,0,243.6,108.3Zm0,19.9c-4.7,0-8.2-3.7-8.2-8.7,0-4.9,3.5-8.5,8.1-8.5,4.7,0,8.2,3.7,8.2,8.6S248.3,128.2,243.6,128.2Zm15.6-19.6v22h3V123h4.9c4.3,0,8.7-2.3,8.7-7.3,0-4.3-3.3-7.1-8.3-7.1Zm8,11.7h-5v-8.9h5.2c3.5,0,5.5,1.6,5.5,4.5C272.8,118.5,270.6,120.3,267.2,120.3Zm26.9-11.7h3v22h-3V121H282.3v9.7h-3v-22h3v9.5h11.8Zm13.5,9.4v-6.6h-7.2v-2.8h17.4v2.8h-7.2v19.2h-3V118Zm28.5-9.4h3v22h-3V121H324.2v9.7h-3v-22h3v9.5h11.9Zm23,16.3,2.5,5.7h3.2l-10-22.1h-2.6l-10,22.1h3.1l2.5-5.7Zm-1.2-2.7h-9l4.5-10Zm13-13.6v19.2H383v2.8H368v-22Zm33.6,22V113.8l-7.4,10.9h-.4l-.1-.1-7.3-10.8v16.8h-2.9v-22h2.9l7.7,11.5,7.7-11.5h2.9v22Zm7.4-10.9A11.019,11.019,0,0,0,423.1,131a11.164,11.164,0,0,0,11.2-11.4,11.2,11.2,0,1,0-22.4.1Zm11.2,8.5c-4.7,0-8.2-3.7-8.2-8.7,0-4.9,3.5-8.5,8.1-8.5a8.33,8.33,0,0,1,8.2,8.6C431.2,124.5,427.7,128.2,423.1,128.2Zm18.6-.4h12.1v2.8h-15v-22h3v19.2Zm35.8-8.2a11.019,11.019,0,0,0-11.2-11.3,11.164,11.164,0,0,0-11.2,11.4A11.019,11.019,0,0,0,466.3,131,11.227,11.227,0,0,0,477.5,119.6Zm-11.2,8.6c-4.7,0-8.2-3.7-8.2-8.7,0-4.9,3.5-8.5,8.1-8.5a8.33,8.33,0,0,1,8.2,8.6C474.4,124.5,470.9,128.2,466.3,128.2Zm25.6,2.8c-6.6,0-11.2-4.6-11.2-11.3a11.062,11.062,0,0,1,11-11.4,11.646,11.646,0,0,1,8.2,2.9l.2.2-1.9,2.2-.2-.2a9.042,9.042,0,0,0-6.4-2.4c-4.4,0-7.9,3.7-7.9,8.5,0,5.2,3.3,8.7,8.2,8.7a9.556,9.556,0,0,0,5.9-2v-4.9h-6.5v-2.7h9.4v8.9l-.1.1A12.438,12.438,0,0,1,491.9,131Zm19.5-.4v-8.7l-9.2-13.3h3.6l.1.1,7,10.4,7.2-10.5h3.5l-9.2,13.3v8.7Zm-326.6,19h-5.1V163h1.8v-4.6h3c2.6,0,5.3-1.4,5.3-4.4h0C189.9,151.3,187.9,149.6,184.8,149.6Zm-3.3,1.7h3.2c2.2,0,3.4,1,3.4,2.7h0c0,1.6-1.4,2.8-3.5,2.8h-3.1v-5.5Zm16.4,1.6h.1v1.8h-.2c-2.2,0-3.7,1.7-3.7,4.3v4h-1.7V153h1.7v2.1a4.2,4.2,0,0,1,3.6-2.3C197.8,152.9,197.8,152.9,197.9,152.9Zm6.6,0a5.164,5.164,0,0,0-5.2,5.2h0a5.2,5.2,0,0,0,10.4,0h0A5.1,5.1,0,0,0,204.5,152.9Zm0,8.8a3.483,3.483,0,0,1-3.4-3.6h0a3.422,3.422,0,0,1,3.4-3.6,3.565,3.565,0,0,1,3.5,3.6h0A3.5,3.5,0,0,1,204.5,161.7Zm9.9-8.6h3.1v1.6h-3.1v5.5a1.326,1.326,0,0,0,1.5,1.5,2.768,2.768,0,0,0,1.3-.3l.2-.1v1.5h-.1a3.661,3.661,0,0,1-1.8.4,2.59,2.59,0,0,1-2.9-2.9v-5.7h-1.3V153h1.3v-2.9h1.7v3Zm9.4-.2a5.21,5.21,0,0,0,.2,10.4,5.157,5.157,0,0,0,4.1-1.9l.1-.1-1.1-1-.1.1a3.946,3.946,0,0,1-3,1.3,3.335,3.335,0,0,1-3.3-2.9h7.7v-.6C228.5,155,226.6,152.9,223.8,152.9Zm0,1.5a2.92,2.92,0,0,1,2.9,3h-5.9A3.14,3.14,0,0,1,223.8,154.4Zm14.9,5.8,1.1,1.1-.1.1a5.187,5.187,0,0,1-9.2-3.3h0a5.143,5.143,0,0,1,5.1-5.2,4.907,4.907,0,0,1,4,1.8l.1.1-1.1,1.2-.1-.1a3.81,3.81,0,0,0-2.8-1.4,3.4,3.4,0,0,0-3.3,3.6h0a3.483,3.483,0,0,0,3.4,3.6,4.189,4.189,0,0,0,2.9-1.4Zm5.9-7.1h3.1v1.6h-3.1v5.5a1.326,1.326,0,0,0,1.5,1.5,2.768,2.768,0,0,0,1.3-.3l.2-.1v1.5h-.1a3.661,3.661,0,0,1-1.8.4,2.59,2.59,0,0,1-2.9-2.9v-5.7h-1.3V153h1.3v-2.9h1.7v3Zm5.4-3.8h1.9v1.9H250Zm.1,9.9v-6.1h1.7v10h-1.7Zm13.9-2.3v6.2h-1.7v-5.8c0-1.7-.9-2.8-2.5-2.8a2.759,2.759,0,0,0-2.8,2.9v5.7h-1.7v-10H257v1.4a3.886,3.886,0,0,1,3.2-1.6C262.5,152.9,264,154.4,264,156.9Zm10.9-2.4a4.8,4.8,0,0,0-3.7-1.7,4.688,4.688,0,0,0-4.7,4.7h0a4.688,4.688,0,0,0,4.7,4.7,4.591,4.591,0,0,0,3.7-1.8v.7c0,2.1-1.2,3.3-3.4,3.3a5.991,5.991,0,0,1-3.6-1.2l-.1-.1-.8,1.4.1.1a7.749,7.749,0,0,0,4.5,1.4,5.622,5.622,0,0,0,3.8-1.3,4.459,4.459,0,0,0,1.3-3.5V153H275l-.1,1.5Zm-3.4,6.2a3.159,3.159,0,0,1-3.2-3.2h0a3.077,3.077,0,0,1,3.2-3.1,3.246,3.246,0,0,1,3.4,3.1h0A3.263,3.263,0,0,1,271.5,160.7Zm23.5-1.4h0c0,2.3-1.9,3.9-4.6,3.9a8.235,8.235,0,0,1-5.5-2.1l-.1-.1,1.1-1.3.1.1a5.962,5.962,0,0,0,4.4,1.8c1.6,0,2.8-.9,2.8-2.1h0c0-1.1-.5-1.8-3.3-2.4-2.7-.6-4.5-1.5-4.5-3.9h0c0-2.2,1.9-3.7,4.5-3.7a7.057,7.057,0,0,1,4.7,1.6l.1.1-1,1.4-.1-.1a5.369,5.369,0,0,0-3.7-1.4c-1.6,0-2.7.8-2.7,2h0c0,1.1.5,1.8,3.5,2.4C293.6,156.2,295,157.3,295,159.3Zm2.9-2.6v-3.6h1.7v10h-1.7Zm-.1-7.4h2v1.9h-1.9v-1.9Zm12.9,5.2a4.8,4.8,0,0,0-3.7-1.7,4.688,4.688,0,0,0-4.7,4.7h0a4.688,4.688,0,0,0,4.7,4.7,4.591,4.591,0,0,0,3.7-1.8v.7c0,2.1-1.2,3.3-3.4,3.3a5.991,5.991,0,0,1-3.6-1.2l-.1-.1-.8,1.4.1.1a7.749,7.749,0,0,0,4.5,1.4,5.622,5.622,0,0,0,3.8-1.3,4.459,4.459,0,0,0,1.3-3.5V153h-1.7l-.1,1.5Zm-3.4,6.2a3.159,3.159,0,0,1-3.2-3.2h0a3.077,3.077,0,0,1,3.2-3.1,3.246,3.246,0,0,1,3.4,3.1h0A3.323,3.323,0,0,1,307.3,160.7Zm17.1-3.8v6.2h-1.7v-5.8a2.5,2.5,0,0,0-2.5-2.8,2.759,2.759,0,0,0-2.8,2.9v5.7h-1.7v-14h1.7v5.4a3.886,3.886,0,0,1,3.2-1.6C322.9,152.9,324.4,154.4,324.4,156.9Zm5.2-3.8h3.1v1.6h-3.1v5.5a1.326,1.326,0,0,0,1.5,1.5,2.768,2.768,0,0,0,1.3-.3l.2-.1v1.5h-.1a3.661,3.661,0,0,1-1.8.4,2.59,2.59,0,0,1-2.9-2.9v-5.7h-1.4V153h1.4v-2.9h1.7l.1,3Zm5.6,9v-1.3h2V163h-2Zm12.8-.7h8.1V163h-9.9V149.6H356v1.6h-8v4.2h7.2V157H348Zm25.7-4.5V163H372v-5.8c0-1.8-.9-2.8-2.4-2.8-1.3,0-2.5.9-2.5,2.9V163h-1.7v-5.8c0-1.7-.9-2.7-2.4-2.7a2.664,2.664,0,0,0-2.6,2.9v5.7h-1.7v-10h1.7v1.3a3.534,3.534,0,0,1,3-1.5,3.245,3.245,0,0,1,3.1,1.8,4.052,4.052,0,0,1,3.4-1.8C372.2,152.9,373.7,154.4,373.7,156.9Zm8.5-4a4.376,4.376,0,0,0-3.6,1.9v-1.7h-1.7v13h1.7v-4.6a4.276,4.276,0,0,0,3.6,1.8,4.9,4.9,0,0,0,4.8-5.2h0A4.9,4.9,0,0,0,382.2,152.9Zm-.2,1.5a3.345,3.345,0,0,1,3.3,3.6h0a3.289,3.289,0,0,1-3.3,3.6,3.482,3.482,0,0,1-3.4-3.6h0A3.482,3.482,0,0,1,382,154.4Zm12.4-1.5a5.164,5.164,0,0,0-5.2,5.2h0a5.2,5.2,0,0,0,10.4,0h0A5.164,5.164,0,0,0,394.4,152.9Zm0,8.8a3.483,3.483,0,0,1-3.4-3.6h0a3.422,3.422,0,0,1,3.4-3.6,3.565,3.565,0,0,1,3.5,3.6h0A3.632,3.632,0,0,1,394.4,161.7Zm19.7-8.6h1.8l-3.5,10h-1.5l-2.5-7.4-2.5,7.4h-1.5l-3.5-10h1.8v.1l2.4,7.4,2.5-7.5H409v.1l2.5,7.4Zm8-.2a5.21,5.21,0,0,0,.2,10.4,5.157,5.157,0,0,0,4.1-1.9l.1-.1-1.1-1-.1.1a3.946,3.946,0,0,1-3,1.3,3.335,3.335,0,0,1-3.3-2.9h7.7v-.6C426.7,155,424.9,152.9,422.1,152.9Zm-.1,1.5a2.92,2.92,0,0,1,2.9,3H419A3.214,3.214,0,0,1,422,154.4Zm13-1.5h.1v1.8h-.3c-2.2,0-3.7,1.7-3.7,4.3v4h-1.7V153h1.7v2.1a4.2,4.2,0,0,1,3.6-2.3A.367.367,0,0,0,435,152.9Zm2.2-3.6h2v1.9h-1.9v-1.9Zm.1,9.3v-5.5H439v10h-1.7Zm13.9-1.7v6.2h-1.7v-5.8a2.5,2.5,0,0,0-2.5-2.8,2.759,2.759,0,0,0-2.8,2.9v5.7h-1.7v-10h1.7v1.4a3.886,3.886,0,0,1,3.2-1.6C449.7,152.9,451.2,154.4,451.2,156.9Zm10.9-2.4a4.75,4.75,0,0,0-3.6-1.7,4.688,4.688,0,0,0-4.7,4.7h0a4.688,4.688,0,0,0,4.7,4.7,4.591,4.591,0,0,0,3.7-1.8v.7c0,2.1-1.2,3.3-3.4,3.3a6.513,6.513,0,0,1-3.7-1.2l-.1-.1-.8,1.4.1.1a7.749,7.749,0,0,0,4.5,1.4,5.622,5.622,0,0,0,3.8-1.3,4.838,4.838,0,0,0,1.3-3.5V153h-1.7l-.1,1.5Zm-3.4,6.2a3.159,3.159,0,0,1-3.2-3.2h0a3.077,3.077,0,0,1,3.2-3.1,3.246,3.246,0,0,1,3.4,3.1h0A3.263,3.263,0,0,1,458.7,160.7Zm16,.7h7.4v1.7h-9.2V149.7h1.8v11.7Zm9.8-12.1h1.9v1.9h-1.9Zm.1,6.5V153h1.7v10h-1.7Zm12.2-2.7h1.9l-.1.2-4.3,9.9h-1.5l-4.3-10h1.9l3.2,7.8Zm7.8-.2a5.21,5.21,0,0,0,.2,10.4,5.157,5.157,0,0,0,4.1-1.9l.1-.1-1.1-1-.1.1a3.946,3.946,0,0,1-3,1.3,3.335,3.335,0,0,1-3.3-2.9h7.7v-.6C509.3,155,507.4,152.9,504.6,152.9Zm0,1.5a2.92,2.92,0,0,1,2.9,3h-5.9A3.071,3.071,0,0,1,504.6,154.4Zm14.2,5.7h0c0,1.9-1.4,3.1-3.6,3.1a6.877,6.877,0,0,1-4.1-1.5l-.1-.1.9-1.3.1.1a5.59,5.59,0,0,0,3.3,1.2c1.1,0,1.9-.6,1.9-1.4h0c0-.9-1-1.2-2.3-1.6-1.4-.4-3.3-.9-3.3-2.9h0c0-1.7,1.4-2.9,3.4-2.9a6.888,6.888,0,0,1,3.6,1.1l.1.1-.8,1.3-.1-.1a5.144,5.144,0,0,0-2.8-.9c-1,0-1.7.5-1.7,1.3h0c0,.8,1.1,1.2,2.4,1.5h0C516.8,157.6,518.8,158.2,518.8,160.1Zm2.5,1.7v-1h2V163h-2Z" transform="translate(98.3 199.7)" fill="#53565a"/>
    <path id="Path_26214" data-name="Path 26214" d="M156.4,101.2A77.9,77.9,0,1,1,78.5,23.3,77.929,77.929,0,0,1,156.4,101.2Z" transform="translate(98.3 199.7)" fill="#fff"/>
    <path id="Path_26215" data-name="Path 26215" d="M117.5,168.7a70.75,70.75,0,0,1-10,4.8L83.2,110.6ZM85.8,111.8l33.1,56a71.118,71.118,0,0,0,7.2-5Zm3.8,66.5-8.9-57.1,3.9,57.6C86.4,178.7,88,178.5,89.6,178.3Zm1.6-62.5,36.3,46c1.4-1.1,2.7-2.2,4-3.4Zm0-4.6,46.4,40.9c1.4-1.7,2.8-3.4,4.1-5.2ZM82.3,74.4,91,24.3c-1.1-.2-2.2-.3-3.2-.4Zm-.4,37.7,14.3,65a83.03,83.03,0,0,0,9.7-2.9Zm74.3-16.7a76.382,76.382,0,0,0-2-12.7l-66.5,17ZM78.5,74.1l1.4-50.8H76.6Zm19.4,29.2,57.8,9c.2-1.7.4-3.4.6-5.2Zm-4.3,1.1,60.3,16.5a49.553,49.553,0,0,0,1.4-6.9Zm-6.8,1.5,55.9,39.5a72.528,72.528,0,0,0,6.3-10.8Zm1.6-1.1L149.6,133a76.023,76.023,0,0,0,3.8-10.4ZM81.6,88.7l19.7-62.1c-2.8-.8-5.6-1.5-8.5-2.1ZM91,93.8l56.5-29c-1.2-2.2-2.5-4.4-3.9-6.5Zm61.6-17L99.5,94.9,153.8,81ZM134.7,47.2c-.7-.7-1.4-1.5-2.2-2.2L98.3,81.4ZM75.4,179l1.5-50.6-4.7,50.4C73.2,178.9,74.3,179,75.4,179Zm81-73.6c.1-1.4.1-2.8.1-4.2s0-2.7-.1-4.1L92,101.2ZM81.6,23.3,80,79.3l6-55.7C84.6,23.5,83.1,23.4,81.6,23.3Zm10.8,91.2,40.4,42.6c1.3-1.2,2.5-2.5,3.7-3.8Zm-2.8-18L152,75.1c-1.1-3-2.3-5.9-3.7-8.8ZM86.2,86.3l30.7-52.9c-1.8-1-3.7-2-5.6-2.9Zm8.3,3,48.1-32.5c-1-1.4-2-2.7-3-4.1Zm-8.6,1L125.5,39c-2.3-1.7-4.7-3.3-7.1-4.8Zm-2-3.1,25.8-57.4c-2.2-1-4.5-1.8-6.8-2.6Zm12.6-1.7,42-34.1c-.8-1-1.7-2-2.6-3Zm-6.2,1.9,41-43.6c-1.4-1.3-2.9-2.5-4.4-3.7Zm-6.7,40.5L91.4,178c1.1-.2,2.1-.4,3.2-.6ZM55.4,114.3,9.9,138.1c.5,1,1.1,1.9,1.7,2.9Zm9.4-3.7L12.5,142.5a61.779,61.779,0,0,0,3.6,5.3Zm-7.5,7.9L17.2,149.1c.7.8,1.3,1.7,2,2.5Zm8-11.4L6,129.7a72.182,72.182,0,0,0,3.1,6.9Zm2.5-4L1.1,109.7A72.028,72.028,0,0,0,3,120.2Zm2.9,7.7L25.9,158.5a75.748,75.748,0,0,0,7,5.7Zm-7.8-4.6L3.4,121.9c.6,2.1,1.2,4.1,2,6.2Zm11,12.5-18.2,57a49.444,49.444,0,0,0,5.5,1.5ZM50,173.6c1.4.5,2.7,1,4.1,1.5L71,122ZM74.9,23.3a73.4,73.4,0,0,0-9.3,1L77.3,89Zm1.5,92.1L63,177.5a64.585,64.585,0,0,0,7.5,1.1Zm2.5,3.5L77.1,179h1.4c1.5,0,3-.1,4.4-.1ZM51.1,103,.8,104.8c.1,1.1.1,2.1.2,3.2ZM20.3,152.9c1.4,1.6,2.8,3,4.3,4.5L66.3,113Zm51-40L34.2,165.3a80.021,80.021,0,0,0,6.9,4.3Zm.1,3.6L42.7,170.4a49.825,49.825,0,0,0,5.7,2.7ZM64,24.6c-2.5.5-4.9,1.1-7.3,1.8L75.1,87Zm.3,53.1-24.7-44c-.9.5-1.8,1.1-2.7,1.7Zm6.4.7L55,26.9c-1.2.4-2.5.8-3.7,1.3Zm2.7,11.9L49.7,28.8a61.816,61.816,0,0,0-8.6,4.1Zm-6.4.1L24,45.6c-1.6,1.6-3.2,3.3-4.6,5ZM.8,96c-.1,1.7-.2,3.4-.2,5.1V103l62.6-2.3Zm65.1,3.3L2.2,85.6A64.957,64.957,0,0,0,1,94.3Zm-5.4-7.5-50-28.6c-.8,1.4-1.6,2.9-2.3,4.4Zm2.9,3.3L7.5,69.2a64.351,64.351,0,0,0-2.4,6.1Zm.7,2.1L4.5,76.9a55.6,55.6,0,0,0-1.9,7Zm4.8-9.3L35.4,36.3c-1.8,1.2-3.6,2.5-5.2,3.8Zm1.6,7.6L18.2,51.9a95.9,95.9,0,0,0-6.9,9.8Zm-5.6-9.8-36-44.5c-1.2,1-2.4,2.1-3.6,3.2Z" transform="translate(98.3 199.7)" fill="#351f65"/>
    <g id="TM_2_" transform="translate(98.3 199.7)">
      <g id="TM_6_">
        <g id="Group_11142" data-name="Group 11142">
          <path id="Path_26216" data-name="Path 26216" d="M1177.2,90.4h3.9v10.3h2.2V90.4h3.9v-2h-10Zm21.3-2-3.7,5.8-3.7-5.8h-2.3v12.3h2.1V91.9l3.8,5.8h.1l3.9-5.8v8.8h2.2V88.4Z" fill="#52555a"/>
        </g>
      </g>
    </g>
    <g id="Basic_and_Clinical_Science_Course_1_" transform="translate(98.3 199.7)">
      <g id="Basic_and_Clinical_Science_Course">
        <g id="Group_11143" data-name="Group 11143">
          <path id="Path_26217" data-name="Path 26217" d="M663.9,112.8a5.944,5.944,0,0,0,3.9-5.7V107a5.349,5.349,0,0,0-1.6-3.9,8.841,8.841,0,0,0-6.4-2.2H649.4v24.5h10.9c5.3,0,8.9-2.5,8.9-6.7v-.1C669.2,115.4,666.8,113.7,663.9,112.8Zm-11.7-9.3h7.4c3.5,0,5.4,1.6,5.4,4v.1c0,2.9-2.3,4.4-5.6,4.4h-7.2v-8.5Zm14.2,15.1c0,2.7-2.3,4.4-6,4.4h-8.2v-8.6h7.7c4.2,0,6.5,1.5,6.5,4.2Zm13.2-11.4a15.272,15.272,0,0,0-6.6,1.5l.8,2.2a12.384,12.384,0,0,1,5.5-1.3c3.4,0,5.4,1.7,5.4,4.9v.6a17.5,17.5,0,0,0-5.6-.8c-4.6,0-7.7,2-7.7,5.8v.1c0,3.7,3.4,5.6,6.7,5.6a7.841,7.841,0,0,0,6.5-3.1v2.7h2.6v-11a6.886,6.886,0,0,0-1.9-5.3C684.1,107.8,682.1,107.2,679.6,107.2Zm5.1,11.7c0,2.9-2.7,4.9-6,4.9-2.4,0-4.5-1.3-4.5-3.6v-.1c0-2.3,1.9-3.7,5.3-3.7a17.932,17.932,0,0,1,5.3.8l-.1,1.7Zm13.5-3.7c-2.4-.7-4.6-1.4-4.6-3.1V112c0-1.5,1.4-2.6,3.5-2.6a10.684,10.684,0,0,1,5.3,1.7l1.2-2a12.713,12.713,0,0,0-6.5-2c-3.6,0-6.1,2.1-6.1,5.2v.1c0,3.3,3.1,4.3,6,5.1,2.4.7,4.5,1.4,4.5,3.2v.1c0,1.7-1.6,2.9-3.7,2.9a10.14,10.14,0,0,1-6.2-2.3l-1.4,1.9a12.716,12.716,0,0,0,7.5,2.7c3.6,0,6.4-2,6.4-5.4v-.1C704,117.1,701,116,698.2,115.2Zm9.6,10.3h2.7V107.4h-2.7Zm-.1-22h3.1v-3h-3.1Zm16,20a6.69,6.69,0,0,1-6.6-7v-.1c0-3.9,2.8-7,6.5-7a7.331,7.331,0,0,1,5.5,2.7l1.8-1.9a9.423,9.423,0,0,0-16.5,6.2v.1a9.3,9.3,0,0,0,9.3,9.4,9.407,9.407,0,0,0,7.4-3.5l-1.7-1.6C727.7,122.3,726,123.5,723.7,123.5Zm26.1-16.3a15.272,15.272,0,0,0-6.6,1.5l.8,2.2a12.384,12.384,0,0,1,5.5-1.3c3.4,0,5.4,1.7,5.4,4.9v.6a17.5,17.5,0,0,0-5.6-.8c-4.6,0-7.7,2-7.7,5.8v.1c0,3.7,3.4,5.6,6.7,5.6a7.841,7.841,0,0,0,6.5-3.1v2.7h2.6v-11a6.886,6.886,0,0,0-1.9-5.3C754.3,107.8,752.4,107.2,749.8,107.2Zm5.1,11.7c0,2.9-2.7,4.9-6,4.9-2.4,0-4.5-1.3-4.5-3.6v-.1c0-2.3,1.9-3.7,5.3-3.7a17.932,17.932,0,0,1,5.3.8l-.1,1.7ZM770.7,107a6.98,6.98,0,0,0-6.2,3.5v-3.1h-2.7v18.1h2.7V115.2a5.336,5.336,0,0,1,5.4-5.7c3.2,0,5,2.1,5,5.5v10.6h2.7V114.4C777.6,110,775.1,107,770.7,107Zm25.7,3.9a8.221,8.221,0,0,0-6.9-3.8c-4.3,0-8.6,3.5-8.6,9.4v.1c0,5.9,4.3,9.4,8.6,9.4,3.3,0,5.4-1.9,6.9-4v3.6h2.7V100h-2.7Zm.1,5.6a6.737,6.737,0,0,1-6.5,7c-3.4,0-6.4-2.7-6.4-7v-.1c0-4.4,2.9-7,6.4-7a6.766,6.766,0,0,1,6.5,7.1Zm28,6.9c-5.4,0-9.5-4.4-9.5-10.1v-.1c0-5.6,4.1-10,9.5-10a10.632,10.632,0,0,1,7.7,3.4l1.9-2a12.66,12.66,0,0,0-9.5-3.9,12.316,12.316,0,0,0-12.4,12.6v.1A12.235,12.235,0,0,0,824.5,126a12.861,12.861,0,0,0,9.8-4.3l-1.8-1.8C830,122.1,827.8,123.4,824.5,123.4Zm13.1,2.1h2.7V100h-2.7Zm7.6-22h3.1v-3h-3.1Zm.1,22H848V107.4h-2.7ZM861.8,107a6.98,6.98,0,0,0-6.2,3.5v-3.1h-2.7v18.1h2.7V115.2a5.336,5.336,0,0,1,5.4-5.7c3.2,0,5,2.1,5,5.5v10.6h2.7V114.4C868.7,110,866.1,107,861.8,107Zm11.3-3.5h3.1v-3h-3.1Zm.1,22h2.7V107.4h-2.7Zm15.9-2a6.69,6.69,0,0,1-6.6-7v-.1c0-3.9,2.8-7,6.5-7a7.331,7.331,0,0,1,5.5,2.7l1.8-1.9a9.423,9.423,0,0,0-16.5,6.2v.1a9.3,9.3,0,0,0,9.3,9.4,9.407,9.407,0,0,0,7.4-3.5l-1.7-1.6C893.1,122.3,891.4,123.5,889.1,123.5Zm17-16.3a15.272,15.272,0,0,0-6.6,1.5l.8,2.2a12.384,12.384,0,0,1,5.5-1.3c3.4,0,5.4,1.7,5.4,4.9v.6a17.5,17.5,0,0,0-5.6-.8c-4.6,0-7.7,2-7.7,5.8v.1c0,3.7,3.4,5.6,6.7,5.6a7.841,7.841,0,0,0,6.5-3.1v2.7h2.6v-11a6.886,6.886,0,0,0-1.9-5.3C910.6,107.8,908.7,107.2,906.1,107.2Zm5.2,11.7c0,2.9-2.7,4.9-6,4.9-2.4,0-4.5-1.3-4.5-3.6v-.1c0-2.3,1.9-3.7,5.3-3.7a17.932,17.932,0,0,1,5.3.8l-.1,1.7Zm7.1,6.6h2.7V100h-2.7Zm25.8-13.6c-5.4-1.2-6.6-2.4-6.6-4.8V107c0-2.2,2-3.9,5.2-3.9a10.737,10.737,0,0,1,7.1,2.7l1.6-2.1a12.7,12.7,0,0,0-8.6-3c-4.6,0-8,2.8-8,6.7v.1c0,4,2.6,5.8,8.2,7.1,5.1,1.1,6.4,2.4,6.4,4.6v.1c0,2.4-2.2,4.2-5.4,4.2-3.4,0-5.8-1.2-8.4-3.5l-1.7,2a14.308,14.308,0,0,0,10,3.9c4.9,0,8.3-2.7,8.3-6.9v-.1C952.2,115.1,949.7,113.1,944.2,111.9Zm20,11.6a6.69,6.69,0,0,1-6.6-7v-.1c0-3.9,2.8-7,6.5-7a7.331,7.331,0,0,1,5.5,2.7l1.8-1.9a9.423,9.423,0,0,0-16.5,6.2v.1a9.3,9.3,0,0,0,9.3,9.4,9.407,9.407,0,0,0,7.4-3.5l-1.7-1.6A8.321,8.321,0,0,1,964.2,123.5Zm10.4-20h3.1v-3h-3.1Zm.1,22h2.7V107.4h-2.7ZM989.8,107c-5,0-8.7,4.2-8.7,9.4v.1a9,9,0,0,0,9,9.4,9.335,9.335,0,0,0,7.4-3.4l-1.7-1.5a7.677,7.677,0,0,1-5.7,2.6,6.359,6.359,0,0,1-6.4-6.1H998v-.9C998.2,111.3,995.2,107,989.8,107Zm-5.9,8.5c.3-3.5,2.7-6.1,5.9-6.1,3.6,0,5.5,2.9,5.8,6.1Zm26.5-8.5a6.98,6.98,0,0,0-6.2,3.5v-3.1h-2.7v18.1h2.7V115.2a5.336,5.336,0,0,1,5.4-5.7c3.2,0,5,2.1,5,5.5v10.6h2.7V114.4C1017.3,110,1014.8,107,1010.4,107Zm19.5,16.5a6.69,6.69,0,0,1-6.6-7v-.1c0-3.9,2.8-7,6.5-7a7.331,7.331,0,0,1,5.5,2.7l1.8-1.9a9.423,9.423,0,0,0-16.5,6.2v.1a9.3,9.3,0,0,0,9.3,9.4,9.407,9.407,0,0,0,7.4-3.5l-1.7-1.6A8.322,8.322,0,0,1,1029.9,123.5Zm17.3-16.5c-5,0-8.7,4.2-8.7,9.4v.1a9,9,0,0,0,9,9.4,9.335,9.335,0,0,0,7.4-3.4l-1.7-1.5a7.677,7.677,0,0,1-5.7,2.6,6.359,6.359,0,0,1-6.4-6.1h14.3v-.9C1055.6,111.3,1052.6,107,1047.2,107Zm-5.9,8.5c.3-3.5,2.7-6.1,5.9-6.1,3.6,0,5.5,2.9,5.8,6.1Zm38.4,7.9c-5.4,0-9.5-4.4-9.5-10.1v-.1c0-5.6,4.1-10,9.5-10a10.632,10.632,0,0,1,7.7,3.4l1.9-2a12.66,12.66,0,0,0-9.5-3.9,12.317,12.317,0,0,0-12.4,12.6v.1a12.235,12.235,0,0,0,12.3,12.6,12.861,12.861,0,0,0,9.8-4.3l-1.8-1.8C1085.3,122.1,1083.1,123.4,1079.7,123.4Zm20.8-16.4a9.325,9.325,0,0,0-9.4,9.4v.1a9.263,9.263,0,0,0,9.4,9.4,9.411,9.411,0,0,0,9.5-9.4v-.1A9.475,9.475,0,0,0,1100.5,107Zm6.6,9.5a6.688,6.688,0,0,1-6.6,7,6.77,6.77,0,0,1-6.7-7v-.1a6.688,6.688,0,0,1,6.6-7,6.858,6.858,0,0,1,6.7,7.1Zm19.1,1.3a5.336,5.336,0,0,1-5.4,5.7c-3.2,0-5-2.1-5-5.5V107.4h-2.7v11.2c0,4.3,2.5,7.2,6.9,7.2a6.98,6.98,0,0,0,6.2-3.5v3.1h2.7V107.3h-2.7Zm10-5.7v-4.7h-2.7v18.1h2.7v-7.2c0-5.5,3.2-8.3,7.2-8.3h.2v-2.9A7.708,7.708,0,0,0,1136.2,112.1Zm16.6,3.1c-2.4-.7-4.6-1.4-4.6-3.1V112c0-1.5,1.4-2.6,3.5-2.6a10.685,10.685,0,0,1,5.3,1.7l1.2-2a12.713,12.713,0,0,0-6.5-2c-3.6,0-6.1,2.1-6.1,5.2v.1c0,3.3,3.1,4.3,6,5.1,2.4.7,4.5,1.4,4.5,3.2v.1c0,1.7-1.6,2.9-3.7,2.9a10.139,10.139,0,0,1-6.2-2.3l-1.4,1.9a12.716,12.716,0,0,0,7.5,2.7c3.6,0,6.4-2,6.4-5.4v-.1C1158.6,117.1,1155.6,116,1152.8,115.2Zm25.4,1.4c0-5.3-3.1-9.5-8.4-9.5-5,0-8.7,4.2-8.7,9.4v.1a9,9,0,0,0,9,9.4,9.335,9.335,0,0,0,7.4-3.4l-1.7-1.5a7.677,7.677,0,0,1-5.7,2.6,6.359,6.359,0,0,1-6.4-6.1H1178A2.176,2.176,0,0,0,1178.2,116.6Zm-14.4-1.1c.3-3.5,2.7-6.1,5.9-6.1,3.6,0,5.5,2.9,5.8,6.1Z" fill="#999"/>
        </g>
      </g>
    </g>
    <g id="Self-Assessment_Program_1_" transform="translate(98.3 199.7)">
      <g id="Self-Assessment_Program_4_">
        <g id="Group_11144" data-name="Group 11144">
          <path id="Path_26218" data-name="Path 26218" d="M656.5,170c-4.6-1.1-5.6-1.9-5.6-3.7v-.1c0-1.6,1.4-2.8,3.8-2.8a10.419,10.419,0,0,1,6.4,2.4l2.2-3.1a13.215,13.215,0,0,0-8.6-3c-4.7,0-8.1,2.8-8.1,6.9v.1c0,4.4,2.8,5.8,7.9,7.1,4.4,1,5.3,1.9,5.3,3.6v.1c0,1.8-1.6,3-4.2,3a10.953,10.953,0,0,1-7.5-3.1l-2.5,3a14.608,14.608,0,0,0,9.9,3.8c5,0,8.4-2.6,8.4-7.1V177C664.1,173,661.5,171.2,656.5,170Zm18.7-4.5c-5.1,0-8.7,4.2-8.7,9.3v.1a8.935,8.935,0,0,0,9.1,9.3,9.059,9.059,0,0,0,7.3-3.3l-2.4-2.1a6.293,6.293,0,0,1-4.8,2.1,4.926,4.926,0,0,1-5.1-4.5h13.1c0-.4.1-.8.1-1.1C683.8,170,680.9,165.5,675.2,165.5Zm-4.6,8.1c.4-2.8,2.1-4.7,4.6-4.7,2.7,0,4.3,2.1,4.5,4.7Zm16.5,10.1h4.1V159.1h-4.1Zm10.8-23.4a6.114,6.114,0,0,0-1.5,4.4V166h-2.3v3.4h2.3v14.3h4.1V169.4h4.7V166h-4.7v-1q0-2.7,2.4-2.7a9.27,9.27,0,0,1,2.4.4v-3.4a9.964,9.964,0,0,0-3.3-.5C700.1,158.9,698.8,159.3,697.9,160.3Zm8.6,15.1h10v-4h-10Zm20.9-15.5L717,183.7h4.3l2.4-5.7h11.2l2.4,5.7h4.4l-10.4-23.8Zm-2.2,14.4,4-9.5,4.1,9.5Zm26.2-1.1c-2.1-.7-4-1.2-4-2.5v-.1c0-1,.9-1.8,2.5-1.8a9.644,9.644,0,0,1,5,1.7l1.6-2.9a12.713,12.713,0,0,0-6.5-2c-3.5,0-6.3,2.1-6.3,5.5v.1c0,3.4,2.9,4.5,5.6,5.2,2.1.6,4,1.1,4,2.5v.1c0,1.2-1,1.9-2.8,1.9a9.588,9.588,0,0,1-5.8-2.2l-1.8,2.8a12.187,12.187,0,0,0,7.6,2.7c3.7,0,6.6-1.9,6.6-5.6v-.1C757,175.2,754,174,751.4,173.2Zm15.6,0c-2.1-.7-4-1.2-4-2.5v-.1c0-1,.9-1.8,2.5-1.8a9.644,9.644,0,0,1,5,1.7l1.6-2.9a12.713,12.713,0,0,0-6.5-2c-3.5,0-6.3,2.1-6.3,5.5v.1c0,3.4,2.9,4.5,5.6,5.2,2.1.6,4,1.1,4,2.5v.1c0,1.2-1,1.9-2.8,1.9a9.588,9.588,0,0,1-5.8-2.2l-1.8,2.8a12.187,12.187,0,0,0,7.6,2.7c3.7,0,6.6-1.9,6.6-5.6v-.1C772.5,175.2,769.6,174,767,173.2Zm16.4-7.7c-5.1,0-8.7,4.2-8.7,9.3v.1a8.935,8.935,0,0,0,9.1,9.3,9.059,9.059,0,0,0,7.3-3.3l-2.4-2.1a6.293,6.293,0,0,1-4.8,2.1,4.926,4.926,0,0,1-5.1-4.5h13.1c0-.4.1-.8.1-1.1C792,170,789.1,165.5,783.4,165.5Zm-4.6,8.1c.4-2.8,2.1-4.7,4.6-4.7,2.7,0,4.3,2.1,4.5,4.7Zm23.5-.4c-2.1-.7-4-1.2-4-2.5v-.1c0-1,.9-1.8,2.5-1.8a9.644,9.644,0,0,1,5,1.7l1.6-2.9a12.713,12.713,0,0,0-6.5-2c-3.5,0-6.3,2.1-6.3,5.5v.1c0,3.4,2.9,4.5,5.6,5.2,2.1.6,4,1.1,4,2.5v.1c0,1.2-1,1.9-2.8,1.9a9.588,9.588,0,0,1-5.8-2.2l-1.8,2.8a12.187,12.187,0,0,0,7.6,2.7c3.7,0,6.6-1.9,6.6-5.6v-.1C807.8,175.2,804.9,174,802.3,173.2Zm15.5,0c-2.1-.7-4-1.2-4-2.5v-.1c0-1,.9-1.8,2.5-1.8a9.644,9.644,0,0,1,5,1.7l1.6-2.9a12.713,12.713,0,0,0-6.5-2c-3.5,0-6.3,2.1-6.3,5.5v.1c0,3.4,2.9,4.5,5.6,5.2,2.1.6,4,1.1,4,2.5v.1c0,1.2-1,1.9-2.8,1.9a9.588,9.588,0,0,1-5.8-2.2l-1.8,2.8a12.187,12.187,0,0,0,7.6,2.7c3.7,0,6.6-1.9,6.6-5.6v-.1C823.4,175.2,820.4,174,817.8,173.2Zm29.6-7.7a7.077,7.077,0,0,0-6,3.1,5.581,5.581,0,0,0-5.3-3.1,6.3,6.3,0,0,0-5.4,3.1v-2.7h-4.1v17.8h4.1V173.6c0-2.7,1.6-4.4,3.8-4.4,2.3,0,3.6,1.6,3.6,4.3v10.2h4.1V173.6c0-2.9,1.6-4.4,3.8-4.4,2.3,0,3.6,1.5,3.6,4.4v10.1h4.1V172.3C853.6,168,851.3,165.5,847.4,165.5Zm17.9,0c-5.1,0-8.7,4.2-8.7,9.3v.1a8.935,8.935,0,0,0,9.1,9.3,9.059,9.059,0,0,0,7.3-3.3l-2.4-2.1a6.293,6.293,0,0,1-4.8,2.1,4.926,4.926,0,0,1-5.1-4.5h13.1c0-.4.1-.8.1-1.1C873.8,170,870.9,165.5,865.3,165.5Zm-4.7,8.1c.4-2.8,2.1-4.7,4.6-4.7,2.7,0,4.3,2.1,4.5,4.7Zm26-8.1a6.658,6.658,0,0,0-5.6,3.1v-2.7h-4.1v17.8H881V173.6c0-2.8,1.7-4.4,4-4.4,2.4,0,3.8,1.6,3.8,4.4v10.1h4.1V172.3C892.9,168.2,890.6,165.5,886.6,165.5Zm15.2-4.5h-4.1v4.9h-2.3v3.5h2.3v9.4c0,3.9,2.1,5.2,5.1,5.2a6.756,6.756,0,0,0,3.7-.9v-3.3a5.421,5.421,0,0,1-2.5.6,1.918,1.918,0,0,1-2.2-2.2v-8.7h4.8V166h-4.8Zm26.8-.9h-9.3v23.6h4.2v-7.6h4.7c5.2,0,9.4-2.8,9.4-8.1h0C937.6,163.2,934.1,160.1,928.6,160.1Zm4.7,8.1c0,2.5-2,4.2-5.1,4.2h-4.8v-8.5h4.8c3.2,0,5.1,1.4,5.1,4.3Zm11.1,1.7v-4h-4.1v17.8h4.1v-6.8c0-4.7,2.5-7.1,6.1-7.1h.2v-4.3C947.6,165.4,945.5,167.2,944.4,169.9Zm16.8-4.4a9.266,9.266,0,0,0-9.5,9.3v.1a9.16,9.16,0,0,0,9.4,9.2,9.266,9.266,0,0,0,9.5-9.3v-.1A9.1,9.1,0,0,0,961.2,165.5Zm5.4,9.4a5.3,5.3,0,0,1-5.4,5.6,5.448,5.448,0,0,1-5.4-5.7v-.1a5.388,5.388,0,0,1,5.4-5.7,5.689,5.689,0,0,1,5.4,5.9Zm20.7-6.3a7.481,7.481,0,0,0-6.2-3A8.013,8.013,0,0,0,973,174v.1a7.987,7.987,0,0,0,8.1,8.3,7.84,7.84,0,0,0,6.3-3.2v1.4c0,3.6-2,5.4-5.6,5.4a11.4,11.4,0,0,1-6.3-1.9l-1.5,3.1a15.161,15.161,0,0,0,8,2.1c3.2,0,5.7-.8,7.3-2.4,1.5-1.5,2.3-3.7,2.3-6.7V166h-4.1v2.6Zm0,5.3a4.977,4.977,0,0,1-5.2,4.9,4.892,4.892,0,0,1-5.1-4.9v-.1a4.835,4.835,0,0,1,5.1-4.9,5,5,0,0,1,5.2,5Zm12.2-4v-4h-4.1v17.8h4.1v-6.8c0-4.7,2.5-7.1,6.1-7.1h.2v-4.3C1002.7,165.4,1000.7,167.2,999.5,169.9Zm15.1-4.2a14.742,14.742,0,0,0-6.7,1.5l1.1,3.2a11.935,11.935,0,0,1,5.1-1.1c2.9,0,4.4,1.4,4.4,3.9v.4a16.239,16.239,0,0,0-4.8-.7c-4.4,0-7.4,1.9-7.4,5.7v.1c0,3.6,3,5.5,6.3,5.5a7.117,7.117,0,0,0,5.8-2.6v2.2h4V173.2a7.518,7.518,0,0,0-1.9-5.5C1019.3,166.4,1017.3,165.7,1014.6,165.7Zm4,11.6c0,2.3-2.1,3.8-4.8,3.8-2,0-3.5-1-3.5-2.7v-.1c0-1.9,1.6-3,4.2-3a11.042,11.042,0,0,1,4,.7l.1,1.3Zm28.6-11.8a7.077,7.077,0,0,0-6,3.1,5.581,5.581,0,0,0-5.3-3.1,6.3,6.3,0,0,0-5.4,3.1v-2.7h-4.1v17.8h4.1V173.6c0-2.7,1.6-4.4,3.8-4.4s3.6,1.6,3.6,4.3v10.2h4.1V173.6c0-2.9,1.6-4.4,3.8-4.4,2.3,0,3.6,1.5,3.6,4.4v10.1h4.1V172.3C1053.4,168,1051.1,165.5,1047.2,165.5Z" fill="#52555a"/>
        </g>
      </g>
    </g>
    <g id="Shape_1_1_" transform="translate(98.3 199.7)">
      <g id="Shape_1">
        <g id="Group_11145" data-name="Group 11145">
          <path id="Path_26219" data-name="Path 26219" d="M935.3,6.5a11.919,11.919,0,0,0-4.9-4.8,12.9,12.9,0,0,0-12.8,0,11.92,11.92,0,0,0-4.9,4.8A12.9,12.9,0,0,0,911,13a14.009,14.009,0,0,0,1.7,6.5,11.684,11.684,0,0,0,4.8,4.8,13.276,13.276,0,0,0,13,0,11.126,11.126,0,0,0,4.8-4.8A13.705,13.705,0,0,0,937,13,13.7,13.7,0,0,0,935.3,6.5Zm-1.9,11.9a10.255,10.255,0,0,1-4,4,10.378,10.378,0,0,1-5.4,1.4,11.431,11.431,0,0,1-5.4-1.4,10.255,10.255,0,0,1-4-4,10.378,10.378,0,0,1-1.4-5.4,10.484,10.484,0,0,1,1.5-5.4,9.88,9.88,0,0,1,4.1-4,10.732,10.732,0,0,1,10.6,0,10.5,10.5,0,0,1,4.1,4A10.753,10.753,0,0,1,935,13,11.666,11.666,0,0,1,933.4,18.4Z" fill="#52555a"/>
        </g>
      </g>
    </g>
    <g id="Shape_1_1_2" data-name="Shape_1_1_" transform="translate(629.475 307.275)">
      <g id="Shape_1-2" data-name="Shape_1">
        <g id="Group_11145-2" data-name="Group 11145">
          <path id="Path_26219-2" data-name="Path 26219" d="M923.758,3.412a6.258,6.258,0,0,0-2.573-2.52,6.771,6.771,0,0,0-6.72,0,6.258,6.258,0,0,0-2.573,2.52A6.772,6.772,0,0,0,911,6.825a7.356,7.356,0,0,0,.892,3.412,6.134,6.134,0,0,0,2.52,2.52,6.97,6.97,0,0,0,6.825,0,5.841,5.841,0,0,0,2.52-2.52,7.2,7.2,0,0,0,.892-3.412A7.2,7.2,0,0,0,923.758,3.412Zm-1,6.247a5.383,5.383,0,0,1-2.1,2.1,5.448,5.448,0,0,1-2.835.735,6,6,0,0,1-2.835-.735,5.384,5.384,0,0,1-2.1-2.1,5.45,5.45,0,0,1-.735-2.835,5.5,5.5,0,0,1,.788-2.835,5.186,5.186,0,0,1,2.153-2.1,5.634,5.634,0,0,1,5.565,0,5.515,5.515,0,0,1,2.153,2.1,5.645,5.645,0,0,1,.787,2.835A6.126,6.126,0,0,1,922.76,9.66Z" transform="translate(-911 0)" fill="#52555a"/>
        </g>
      </g>
    </g>
    <g id="Rectangle_1_1_" transform="translate(98.3 199.7)">
      <g id="Rectangle_1_2_">
        <g id="Group_11146" data-name="Group 11146">
          <rect id="Rectangle_5741" data-name="Rectangle 5741" width="531" height="4" transform="translate(649 143)" fill="#dadee1"/>
        </g>
      </g>
    </g>
    <g id="Rectangle_2_1_" transform="translate(98.3 199.7)">
      <g id="Rectangle_2">
        <g id="Group_11147" data-name="Group 11147">
          <rect id="Rectangle_5742" data-name="Rectangle 5742" width="4" height="74" transform="translate(590 81)" fill="#dadee1"/>
        </g>
      </g>
    </g>
    <g id="R_1_" transform="translate(98.3 199.7)">
      <g id="R">
        <g id="Group_11148" data-name="Group 11148">
          <path id="Path_26220" data-name="Path 26220" d="M927.7,15.1a4.607,4.607,0,0,0,3.1-4.5h0a4.459,4.459,0,0,0-1.2-3.3,5.678,5.678,0,0,0-4.2-1.5h-6.6V20.3H922V15.7h2.5l3.1,4.6h3.7Zm-.1-4.3c0,1.2-.9,2-2.4,2H922V8.7h3.2c1.5,0,2.4.7,2.4,2.1Z" fill="#52555a"/>
        </g>
      </g>
    </g>
    <g id="R_1_2" data-name="R_1_" transform="translate(633.57 310.32)">
      <g id="R-2" data-name="R" transform="translate(0 0)">
        <g id="Group_11148-2" data-name="Group 11148">
          <path id="Path_26220-2" data-name="Path 26220" d="M923.473,10.682A2.419,2.419,0,0,0,925.1,8.32h0a2.341,2.341,0,0,0-.63-1.732,2.981,2.981,0,0,0-2.2-.787H918.8v7.612h1.68V11h1.312l1.628,2.415h1.943Zm-.053-2.257c0,.63-.473,1.05-1.26,1.05h-1.68V7.322h1.68c.788,0,1.26.367,1.26,1.1Z" transform="translate(-918.8 -5.8)" fill="#52555a"/>
        </g>
      </g>
    </g>
  </g>
</svg>
