<?xml version="1.0" encoding="utf-8"?>
<!-- Generator: Adobe Illustrator 22.0.1, SVG Export Plug-In . SVG Version: 6.00 Build 0)  -->
<svg version="1.1" id="Layer_1" xmlns="http://www.w3.org/2000/svg" xmlns:xlink="http://www.w3.org/1999/xlink" x="0px" y="0px"
	 viewBox="0 0 1202.5 191" style="enable-background:new 0 0 1202.5 191;" xml:space="preserve">
<style type="text/css">
	.st0{enable-background:new    ;}
	.st1{fill:#52555A;}
	.st2{fill:none;}
	.st3{fill:#53565A;}
	.st4{fill:#FFFFFF;}
	.st5{fill:#351F65;}
	.st6{fill:#999999;}
	.st7{fill:#DADEE1;}
	.st8{display:none;}
	.st9{display:inline;fill:#351F65;}
	.st10{fill:#515659;}
	.st11{display:inline;}
</style>
<g id="BCSC_1_" class="st0">
	<g id="BCSC">
		<g>
			<path class="st1" d="M690.4,41.8c5.6-2.5,11.4-7.3,11.4-16.6V25c0-4.6-1.6-8.4-4.6-11.5c-4.1-4-10.6-6.4-18.7-6.4H648V79h31.9
				c15.7,0,26-7.3,26-19.6v-0.2C705.8,49.3,698.9,44.4,690.4,41.8z M655.9,14.5h21.8c10.2,0,15.9,4.6,15.9,11.7v0.2
				c0,8.4-6.8,12.8-16.5,12.8h-21.2V14.5z M697.6,58.9c0,8-6.8,12.8-17.6,12.8h-24.1V46.4h22.6c12.5,0,19.1,4.5,19.1,12.3V58.9z
				 M748.7,72.7c-15.8,0-27.8-13-27.8-29.6v-0.2c0-16.5,11.9-29.4,27.8-29.4c9.7,0,16.5,4.1,22.5,9.8l5.5-5.9
				c-7.2-6.8-15-11.4-28-11.4c-21.1,0-36.3,16.8-36.3,37.1v0.2c0,20.6,15.3,36.9,36,36.9c13,0,21.2-5,28.7-12.6l-5.3-5.2
				C765,68.9,758.5,72.7,748.7,72.7z M811.3,39.2c-15.8-3.4-19.5-7.2-19.5-13.9V25c0-6.5,5.9-11.6,15.3-11.6c7.4,0,14,2.4,20.7,7.8
				l4.7-6.3c-7.3-5.8-14.8-8.8-25.2-8.8c-13.6,0-23.6,8.3-23.6,19.6V26c0,11.8,7.6,17.1,24.1,20.7c15.1,3.2,18.6,7,18.6,13.6v0.2
				c0,7.1-6.4,12.2-16,12.2c-9.9,0-17.1-3.4-24.6-10.1l-5,5.9c8.6,7.7,17.9,11.5,29.3,11.5c14.2,0,24.5-8,24.5-20.3v-0.2
				C834.6,48.5,827.2,42.7,811.3,39.2z M901.1,62.3c-6.9,6.6-13.3,10.4-23.2,10.4c-15.8,0-27.8-13-27.8-29.6v-0.2
				c0-16.5,11.9-29.4,27.8-29.4c9.7,0,16.5,4.1,22.5,9.8l5.5-5.9C898.8,10.6,891,6,878,6c-21.1,0-36.3,16.8-36.3,37.1v0.2
				c0,20.6,15.3,36.9,36,36.9c13,0,21.2-5,28.7-12.6L901.1,62.3z"/>
		</g>
	</g>
	<rect x="-76.3" y="-54.7" class="st2" width="704.3" height="311.7"/>
	<path class="st3" d="M184.4,83.9h11.3l2.5,5.7h3.2l-10-22.1h-2.6l-10,22.1h3.1L184.4,83.9z M185.6,81.2l4.5-10l4.5,10H185.6z
		 M207.8,89.6h-2.9v-22h2.9l7.7,11.5l7.7-11.5h2.9v22h-3V72.8l-7.4,10.9h-0.4l-0.1-0.1l-7.3-10.8L207.8,89.6L207.8,89.6z
		 M248.1,89.6h-16.2v-22h16v2.7h-13.1v6.8h11.7v2.7h-11.7v7H248v2.8H248.1z M255.2,81.2h5.7l6.2,8.3h3.6l-6.7-8.8
		c3.6-0.8,5.6-3.1,5.6-6.5c0-1.7-0.6-3.3-1.7-4.4c-1.4-1.4-3.7-2.2-6.3-2.2h-9.5v22h3L255.2,81.2L255.2,81.2z M255.2,70.4h6.4
		c3.3,0,5.2,1.5,5.2,4s-2.1,4.1-5.3,4.1h-6.3L255.2,70.4L255.2,70.4z M274.8,80.1V67.6h3v22h-3V80.1z M282.6,78.6
		c0-6.4,4.9-11.4,11.1-11.4c4.3,0,6.6,1.7,8.6,3.5l0.2,0.2l-2,2.2l-0.2-0.2c-2.1-2-4.1-2.9-6.6-2.9c-4.6,0-8,3.7-8,8.5
		c0,4.9,3.5,8.7,8,8.7c3,0,4.8-1.2,6.7-3l0.2-0.2l2,1.9l-0.2,0.2c-1.9,1.9-4.4,3.8-8.8,3.8C287.3,89.9,282.6,85.1,282.6,78.6z
		 M310.1,83.9h11.3l2.5,5.7h3.2l-10-22.1h-2.6l-10,22.1h3.1L310.1,83.9z M311.3,81.2l4.5-10l4.5,10H311.3z M333.5,89.6h-2.9v-22h2.7
		l0.1,0.1l13,16.6V67.6h2.9v22H347l-0.1-0.1l-13.4-17V89.6z M367.9,83.9h11.3l2.5,5.7h3.2l-10-22.1h-2.6l-10,22.1h3.1L367.9,83.9z
		 M369.1,81.2l4.5-10l4.5,10H369.1z M386.3,78.6c0-6.4,4.9-11.4,11.1-11.4c4.3,0,6.6,1.7,8.6,3.5l0.2,0.2l-2,2.2l-0.2-0.2
		c-2.1-2-4.1-2.9-6.6-2.9c-4.6,0-8,3.7-8,8.5c0,4.9,3.5,8.7,8,8.7c3,0,4.8-1.2,6.7-3l0.2-0.2l2,1.9l-0.2,0.2
		c-1.9,1.9-4.4,3.8-8.8,3.8C391,89.9,386.3,85.1,386.3,78.6z M413.8,83.9h11.3l2.5,5.7h3.2l-10-22.1h-2.6l-10,22.1h3.1L413.8,83.9z
		 M415,81.2l4.5-10l4.5,10H415z M453.7,78.5c0-6.3-4.9-10.9-11.7-10.9h-7.7v22h7.7C448.8,89.6,453.7,84.9,453.7,78.5z M442.1,86.8
		h-4.8V70.4h4.8c5.1,0,8.6,3.4,8.6,8.3C450.7,83.4,447.1,86.8,442.1,86.8z M474.7,89.6h-16.2v-22h16v2.7h-13.1v6.8h11.7v2.7h-11.7v7
		h13.2v2.8H474.7z M481.7,89.6h-2.9v-22h2.9l7.7,11.5l7.7-11.5h2.9v22h-3V72.8l-7.4,10.9h-0.4l-0.1-0.1l-7.3-10.8v16.8H481.7z
		 M512.4,80.9l-9.2-13.3h3.6l0.1,0.1l7,10.4l7.2-10.5h3.5l-9.2,13.3v8.7h-3V80.9z M190,131c6.3,0,11.2-5,11.2-11.4
		s-4.8-11.3-11.2-11.3c-6.3,0-11.2,5-11.2,11.4S183.6,131,190,131z M190,111c4.6,0,8.2,3.8,8.2,8.6c0,4.9-3.5,8.5-8.1,8.5
		c-4.7,0-8.2-3.7-8.2-8.7C181.8,114.7,185.3,111,190,111z M208.6,111.4v7.1h11.6v2.7h-11.6v9.3h-3v-22h15.9v2.8L208.6,111.4
		L208.6,111.4z M244.6,108.3c-6.3,0-11.2,5-11.2,11.4s4.8,11.3,11.2,11.3c6.3,0,11.2-5,11.2-11.4C255.8,113.1,251,108.3,244.6,108.3
		z M244.6,128.2c-4.7,0-8.2-3.7-8.2-8.7c0-4.9,3.5-8.5,8.1-8.5c4.7,0,8.2,3.7,8.2,8.6C252.7,124.5,249.3,128.2,244.6,128.2z
		 M260.2,108.6v22h3V123h4.9c4.3,0,8.7-2.3,8.7-7.3c0-4.3-3.3-7.1-8.3-7.1H260.2z M268.2,120.3h-5v-8.9h5.2c3.5,0,5.5,1.6,5.5,4.5
		C273.8,118.5,271.6,120.3,268.2,120.3z M295.1,108.6h3v22h-3V121h-11.8v9.7h-3v-22h3v9.5h11.8V108.6z M308.6,118v-6.6h-7.2v-2.8
		h17.4v2.8h-7.2v19.2h-3L308.6,118L308.6,118z M337.1,108.6h3v22h-3V121h-11.9v9.7h-3v-22h3v9.5h11.9V108.6z M360.1,124.9l2.5,5.7
		h3.2l-10-22.1h-2.6l-10,22.1h3.1l2.5-5.7C348.8,124.9,360.1,124.9,360.1,124.9z M358.9,122.2h-9l4.5-10L358.9,122.2z M371.9,108.6
		v19.2H384v2.8h-15v-22C369,108.6,371.9,108.6,371.9,108.6z M405.5,130.6v-16.8l-7.4,10.9h-0.4l-0.1-0.1l-7.3-10.8v16.8h-2.9v-22
		h2.9l7.7,11.5l7.7-11.5h2.9v22H405.5z M412.9,119.7c0,6.4,4.8,11.3,11.2,11.3c6.3,0,11.2-5,11.2-11.4s-4.8-11.3-11.2-11.3
		C417.8,108.3,412.9,113.2,412.9,119.7z M424.1,128.2c-4.7,0-8.2-3.7-8.2-8.7c0-4.9,3.5-8.5,8.1-8.5s8.2,3.8,8.2,8.6
		C432.2,124.5,428.7,128.2,424.1,128.2z M442.7,127.8h12.1v2.8h-15v-22h3v19.2H442.7z M478.5,119.6c0-6.4-4.8-11.3-11.2-11.3
		c-6.3,0-11.2,5-11.2,11.4s4.8,11.3,11.2,11.3C473.5,131,478.5,126,478.5,119.6z M467.3,128.2c-4.7,0-8.2-3.7-8.2-8.7
		c0-4.9,3.5-8.5,8.1-8.5s8.2,3.8,8.2,8.6C475.4,124.5,471.9,128.2,467.3,128.2z M492.9,131c-6.6,0-11.2-4.6-11.2-11.3
		c0-6.4,4.8-11.4,11-11.4c3.3,0,5.7,0.8,8.2,2.9l0.2,0.2l-1.9,2.2l-0.2-0.2c-1.4-1.2-3.2-2.4-6.4-2.4c-4.4,0-7.9,3.7-7.9,8.5
		c0,5.2,3.3,8.7,8.2,8.7c2.1,0,4.3-0.7,5.9-2v-4.9h-6.5v-2.7h9.4v8.9l-0.1,0.1C500.3,128.9,497.3,131,492.9,131z M512.4,130.6v-8.7
		l-9.2-13.3h3.6l0.1,0.1l7,10.4l7.2-10.5h3.5l-9.2,13.3v8.7H512.4z M185.8,149.6h-5.1V163h1.8v-4.6h3c2.6,0,5.3-1.4,5.3-4.4l0,0
		C190.9,151.3,188.9,149.6,185.8,149.6z M182.5,151.3h3.2c2.2,0,3.4,1,3.4,2.7l0,0c0,1.6-1.4,2.8-3.5,2.8h-3.1L182.5,151.3
		L182.5,151.3z M198.9,152.9h0.1v1.8h-0.2c-2.2,0-3.7,1.7-3.7,4.3v4h-1.7v-10h1.7v2.1c0.8-1.4,2.1-2.3,3.6-2.3
		C198.8,152.9,198.8,152.9,198.9,152.9z M205.5,152.9c-2.9,0-5.2,2.3-5.2,5.2l0,0c0,2.9,2.3,5.2,5.2,5.2s5.2-2.3,5.2-5.2l0,0
		C210.7,155.1,208.4,152.9,205.5,152.9z M205.5,161.7c-1.9,0-3.4-1.6-3.4-3.6l0,0c0-2.1,1.5-3.6,3.4-3.6s3.5,1.6,3.5,3.6l0,0
		C209,160.1,207.5,161.7,205.5,161.7z M215.4,153.1h3.1v1.6h-3.1v5.5c0,1,0.5,1.5,1.5,1.5c0.5,0,0.9-0.1,1.3-0.3l0.2-0.1v1.5h-0.1
		c-0.6,0.3-1.1,0.4-1.8,0.4c-1.9,0-2.9-1-2.9-2.9v-5.7h-1.3V153h1.3v-2.9h1.7v3H215.4z M224.8,152.9c-2.7,0-4.8,2.2-4.8,5.2
		s2.1,5.2,5,5.2c1.7,0,2.9-0.6,4.1-1.9l0.1-0.1l-1.1-1l-0.1,0.1c-0.9,0.9-1.8,1.3-3,1.3c-1.7,0-3-1.2-3.3-2.9h7.7v-0.1
		c0-0.2,0-0.4,0-0.5C229.5,155,227.6,152.9,224.8,152.9z M224.8,154.4c1.9,0,2.8,1.5,2.9,3h-5.9C222,155.6,223.3,154.4,224.8,154.4z
		 M239.7,160.2l1.1,1.1l-0.1,0.1c-0.8,0.9-2,1.9-4.1,1.9c-2.8,0-5.1-2.3-5.1-5.2l0,0c0-2.9,2.3-5.2,5.1-5.2c2.1,0,3.2,0.9,4,1.8
		l0.1,0.1l-1.1,1.2l-0.1-0.1c-0.7-0.7-1.5-1.4-2.8-1.4c-1.9,0-3.3,1.6-3.3,3.6l0,0c0,2,1.5,3.6,3.4,3.6c1,0,2-0.5,2.9-1.4
		L239.7,160.2z M245.6,153.1h3.1v1.6h-3.1v5.5c0,1,0.5,1.5,1.5,1.5c0.5,0,0.9-0.1,1.3-0.3l0.2-0.1v1.5h-0.1
		c-0.6,0.3-1.1,0.4-1.8,0.4c-1.9,0-2.9-1-2.9-2.9v-5.7h-1.3V153h1.3v-2.9h1.7v3H245.6z M251,149.3h0.9h1v1.9H251V149.3z
		 M251.1,159.2v-6.1h1.7v10h-1.7V159.2z M265,156.9v6.2h-1.7v-5.8c0-1.7-0.9-2.8-2.5-2.8s-2.8,1.2-2.8,2.9v5.7h-1.7v-10h1.7v1.4
		c0.8-1,1.8-1.6,3.2-1.6C263.5,152.9,265,154.4,265,156.9z M275.9,154.5c-1-1.1-2.2-1.7-3.7-1.7c-2.3,0-4.7,1.8-4.7,4.7l0,0
		c0,2.9,2.4,4.7,4.7,4.7c1.5,0,2.7-0.6,3.7-1.8v0.7c0,2.1-1.2,3.3-3.4,3.3c-1.3,0-2.5-0.4-3.6-1.2l-0.1-0.1l-0.8,1.4l0.1,0.1
		c1.3,0.9,2.8,1.4,4.5,1.4c1.6,0,2.9-0.5,3.8-1.3s1.3-2,1.3-3.5V153H276L275.9,154.5L275.9,154.5z M272.5,160.7
		c-1.8,0-3.2-1.4-3.2-3.2l0,0c0-1.8,1.4-3.1,3.2-3.1c1.7,0,3.4,1.2,3.4,3.1l0,0C275.9,159.5,274.2,160.7,272.5,160.7z M296,159.3
		L296,159.3c0,2.3-1.9,3.9-4.6,3.9c-2.1,0-3.8-0.7-5.5-2.1l-0.1-0.1l1.1-1.3l0.1,0.1c1.4,1.3,2.7,1.8,4.4,1.8c1.6,0,2.8-0.9,2.8-2.1
		l0,0c0-1.1-0.5-1.8-3.3-2.4c-2.7-0.6-4.5-1.5-4.5-3.9l0,0c0-2.2,1.9-3.7,4.5-3.7c1.9,0,3.3,0.5,4.7,1.6l0.1,0.1l-1,1.4l-0.1-0.1
		c-1.2-1-2.3-1.4-3.7-1.4c-1.6,0-2.7,0.8-2.7,2l0,0c0,1.1,0.5,1.8,3.5,2.4C294.6,156.2,296,157.3,296,159.3z M298.9,156.7v-3.6h1.7
		v10h-1.7V156.7z M298.8,149.3h0.9h1.1v1.9h-1.9v-1.9H298.8z M311.7,154.5c-1-1.1-2.2-1.7-3.7-1.7c-2.3,0-4.7,1.8-4.7,4.7l0,0
		c0,2.9,2.4,4.7,4.7,4.7c1.5,0,2.7-0.6,3.7-1.8v0.7c0,2.1-1.2,3.3-3.4,3.3c-1.3,0-2.5-0.4-3.6-1.2l-0.1-0.1l-0.8,1.4l0.1,0.1
		c1.3,0.9,2.8,1.4,4.5,1.4c1.6,0,2.9-0.5,3.8-1.3s1.3-2,1.3-3.5V153h-1.7L311.7,154.5L311.7,154.5z M308.3,160.7
		c-1.8,0-3.2-1.4-3.2-3.2l0,0c0-1.8,1.4-3.1,3.2-3.1c1.7,0,3.4,1.2,3.4,3.1l0,0C311.7,159.5,309.9,160.7,308.3,160.7z M325.4,156.9
		v6.2h-1.7v-5.8c0-1.7-1-2.8-2.5-2.8c-1.6,0-2.8,1.2-2.8,2.9v5.7h-1.7v-14h1.7v5.4c0.8-1,1.8-1.6,3.2-1.6
		C323.9,152.9,325.4,154.4,325.4,156.9z M330.6,153.1h3.1v1.6h-3.1v5.5c0,1,0.5,1.5,1.5,1.5c0.5,0,0.9-0.1,1.3-0.3l0.2-0.1v1.5h-0.1
		c-0.6,0.3-1.1,0.4-1.8,0.4c-1.9,0-2.9-1-2.9-2.9v-5.7h-1.4V153h1.4v-2.9h1.7L330.6,153.1L330.6,153.1z M336.2,162.1v-1.3h2v2.2h-2
		V162.1z M349,161.4h8.1v1.6h-9.9v-13.4h9.8v1.6h-8v4.2h7.2v1.6H349V161.4z M374.7,156.9v6.1H373v-5.8c0-1.8-0.9-2.8-2.4-2.8
		c-1.3,0-2.5,0.9-2.5,2.9v5.7h-1.7v-5.8c0-1.7-0.9-2.7-2.4-2.7s-2.6,1.2-2.6,2.9v5.7h-1.7v-10h1.7v1.3c0.6-0.8,1.5-1.5,3-1.5
		c1.4,0,2.5,0.6,3.1,1.8c0.9-1.2,2-1.8,3.4-1.8C373.2,152.9,374.7,154.4,374.7,156.9z M383.2,152.9c-1.4,0-2.6,0.6-3.6,1.9v-1.7
		h-1.7v13h1.7v-4.6c0.9,1.2,2.1,1.8,3.6,1.8c2.3,0,4.8-1.8,4.8-5.2l0,0C388,154.7,385.5,152.9,383.2,152.9z M383,154.4
		c1.9,0,3.3,1.5,3.3,3.6l0,0c0,2.1-1.3,3.6-3.3,3.6c-1.7,0-3.4-1.4-3.4-3.6l0,0C379.6,155.8,381.3,154.4,383,154.4z M395.4,152.9
		c-2.9,0-5.2,2.3-5.2,5.2l0,0c0,2.9,2.3,5.2,5.2,5.2c2.9,0,5.2-2.3,5.2-5.2l0,0C400.5,155.1,398.3,152.9,395.4,152.9z M395.4,161.7
		c-1.9,0-3.4-1.6-3.4-3.6l0,0c0-2.1,1.5-3.6,3.4-3.6s3.5,1.6,3.5,3.6l0,0C398.8,160.1,397.3,161.7,395.4,161.7z M415.1,153.1h1.8
		l-3.5,10h-1.5l-2.5-7.4l-2.5,7.4h-1.5l-3.5-10h1.8v0.1l2.4,7.4l2.5-7.5h1.4v0.1l2.5,7.4L415.1,153.1z M423.1,152.9
		c-2.7,0-4.8,2.2-4.8,5.2s2.1,5.2,5,5.2c1.7,0,2.9-0.6,4.1-1.9l0.1-0.1l-1.1-1l-0.1,0.1c-0.9,0.9-1.8,1.3-3,1.3
		c-1.7,0-3-1.2-3.3-2.9h7.7v-0.1c0-0.2,0-0.4,0-0.5C427.7,155,425.9,152.9,423.1,152.9z M423,154.4c1.9,0,2.8,1.5,2.9,3H420
		C420.3,155.6,421.5,154.4,423,154.4z M436,152.9h0.1v1.8h-0.3c-2.2,0-3.7,1.7-3.7,4.3v4h-1.7v-10h1.7v2.1c0.8-1.4,2.1-2.3,3.6-2.3
		C435.8,152.9,435.9,152.9,436,152.9z M438.2,149.3h0.8h1.2v1.9h-1.9v-1.9H438.2z M438.3,158.6v-5.5h1.7v10h-1.7V158.6z
		 M452.2,156.9v6.2h-1.7v-5.8c0-1.7-1-2.8-2.5-2.8c-1.6,0-2.8,1.2-2.8,2.9v5.7h-1.7v-10h1.7v1.4c0.8-1,1.8-1.6,3.2-1.6
		C450.7,152.9,452.2,154.4,452.2,156.9z M463.1,154.5c-1-1.1-2.2-1.7-3.6-1.7c-2.3,0-4.7,1.8-4.7,4.7l0,0c0,2.9,2.4,4.7,4.7,4.7
		c1.5,0,2.7-0.6,3.7-1.8v0.7c0,2.1-1.2,3.3-3.4,3.3c-1.3,0-2.5-0.4-3.7-1.2l-0.1-0.1l-0.8,1.4l0.1,0.1c1.3,0.9,2.8,1.4,4.5,1.4
		c1.6,0,2.9-0.5,3.8-1.3c0.8-0.8,1.3-2,1.3-3.5V153h-1.7L463.1,154.5L463.1,154.5z M459.7,160.7c-1.8,0-3.2-1.4-3.2-3.2l0,0
		c0-1.8,1.4-3.1,3.2-3.1c1.7,0,3.4,1.2,3.4,3.1l0,0C463.1,159.5,461.4,160.7,459.7,160.7z M475.7,161.4h7.4v1.7h-9.2v-13.4h1.8
		L475.7,161.4L475.7,161.4z M485.5,149.3h0.9h1v1.9h-1.9V149.3z M485.6,155.8V153h1.7v10h-1.7V155.8z M497.8,153.1h1.9l-0.1,0.2
		l-4.3,9.9h-1.5l-4.3-10h1.9l3.2,7.8L497.8,153.1z M505.6,152.9c-2.7,0-4.8,2.2-4.8,5.2s2.1,5.2,5,5.2c1.7,0,2.9-0.6,4.1-1.9
		l0.1-0.1l-1.1-1l-0.1,0.1c-0.9,0.9-1.8,1.3-3,1.3c-1.7,0-3-1.2-3.3-2.9h7.7v-0.1c0-0.2,0-0.4,0-0.5
		C510.3,155,508.4,152.9,505.6,152.9z M505.6,154.4c1.9,0,2.8,1.5,2.9,3h-5.9C502.8,155.6,504,154.4,505.6,154.4z M519.8,160.1
		L519.8,160.1c0,1.9-1.4,3.1-3.6,3.1c-1.4,0-3-0.6-4.1-1.5l-0.1-0.1l0.9-1.3l0.1,0.1c1.1,0.8,2.2,1.2,3.3,1.2s1.9-0.6,1.9-1.4l0,0
		c0-0.9-1-1.2-2.3-1.6c-1.4-0.4-3.3-0.9-3.3-2.9l0,0c0-1.7,1.4-2.9,3.4-2.9c1.2,0,2.5,0.4,3.6,1.1l0.1,0.1l-0.8,1.3l-0.1-0.1
		c-0.9-0.6-1.9-0.9-2.8-0.9c-1,0-1.7,0.5-1.7,1.3l0,0c0,0.8,1.1,1.2,2.4,1.5l0,0C517.8,157.6,519.8,158.2,519.8,160.1z M522.3,161.8
		v-1h2v2.2h-2V161.8z"/>
	<g>
		<path class="st4" d="M157.4,101.2c0,43-34.9,77.9-77.9,77.9S1.6,144.2,1.6,101.2s34.9-77.9,77.9-77.9
			C122.6,23.3,157.4,58.1,157.4,101.2z"/>
		<path class="st5" d="M118.5,168.7c-3.2,1.8-6.5,3.5-10,4.8l-24.3-62.9L118.5,168.7z M86.8,111.8l33.1,56c2.5-1.5,4.9-3.2,7.2-5
			L86.8,111.8z M90.6,178.3l-8.9-57.1l3.9,57.6C87.4,178.7,89,178.5,90.6,178.3z M92.2,115.8l36.3,46c1.4-1.1,2.7-2.2,4-3.4
			L92.2,115.8z M92.2,111.2l46.4,40.9c1.4-1.7,2.8-3.4,4.1-5.2L92.2,111.2z M83.3,74.4L92,24.3c-1.1-0.2-2.2-0.3-3.2-0.4L83.3,74.4z
			 M82.9,112.1l14.3,65c3.3-0.8,6.5-1.7,9.7-2.9L82.9,112.1z M157.2,95.4c-0.3-4.3-1-8.6-2-12.7l-66.5,17L157.2,95.4z M79.5,74.1
			l1.4-50.8c-0.5,0-0.9,0-1.4,0c-0.6,0-1.3,0-1.9,0L79.5,74.1z M98.9,103.3l57.8,9c0.2-1.7,0.4-3.4,0.6-5.2L98.9,103.3z M94.6,104.4
			l60.3,16.5c0.6-2.2,1.1-4.5,1.4-6.9L94.6,104.4z M87.8,105.9l55.9,39.5c2.4-3.4,4.5-7,6.3-10.8L87.8,105.9z M89.4,104.8l61.2,28.2
			c1.5-3.4,2.8-6.8,3.8-10.4L89.4,104.8z M82.6,88.7l19.7-62.1c-2.8-0.8-5.6-1.5-8.5-2.1L82.6,88.7z M92,93.8l56.5-29
			c-1.2-2.2-2.5-4.4-3.9-6.5L92,93.8z M153.6,76.8l-53.1,18.1L154.8,81C154.4,79.6,154,78.2,153.6,76.8z M135.7,47.2
			c-0.7-0.7-1.4-1.5-2.2-2.2L99.3,81.4L135.7,47.2z M76.4,179l1.5-50.6l-4.7,50.4C74.2,178.9,75.3,179,76.4,179z M157.4,105.4
			c0.1-1.4,0.1-2.8,0.1-4.2c0-1.4,0-2.7-0.1-4.1L93,101.2L157.4,105.4z M82.6,23.3l-1.6,56l6-55.7C85.6,23.5,84.1,23.4,82.6,23.3z
			 M93.4,114.5l40.4,42.6c1.3-1.2,2.5-2.5,3.7-3.8L93.4,114.5z M90.6,96.5L153,75.1c-1.1-3-2.3-5.9-3.7-8.8L90.6,96.5z M87.2,86.3
			l30.7-52.9c-1.8-1-3.7-2-5.6-2.9L87.2,86.3z M95.5,89.3l48.1-32.5c-1-1.4-2-2.7-3-4.1L95.5,89.3z M86.9,90.3L126.5,39
			c-2.3-1.7-4.7-3.3-7.1-4.8L86.9,90.3z M84.9,87.2l25.8-57.4c-2.2-1-4.5-1.8-6.8-2.6L84.9,87.2z M97.5,85.5l42-34.1
			c-0.8-1-1.7-2-2.6-3L97.5,85.5z M91.3,87.4l41-43.6c-1.4-1.3-2.9-2.5-4.4-3.7L91.3,87.4z M84.6,127.9l7.8,50.1
			c1.1-0.2,2.1-0.4,3.2-0.6L84.6,127.9z M56.4,114.3l-45.5,23.8c0.5,1,1.1,1.9,1.7,2.9L56.4,114.3z M65.8,110.6l-52.3,31.9
			c1.1,1.8,2.3,3.6,3.6,5.3L65.8,110.6z M58.3,118.5l-40.1,30.6c0.7,0.8,1.3,1.7,2,2.5L58.3,118.5z M66.3,107.1L7,129.7
			c0.9,2.4,2,4.7,3.1,6.9L66.3,107.1z M68.8,103.1l-66.7,6.6c0.4,3.6,1,7.1,1.9,10.5L68.8,103.1z M71.7,110.8l-44.8,47.7
			c2.2,2,4.6,4,7,5.7L71.7,110.8z M63.9,106.2L4.4,121.9c0.6,2.1,1.2,4.1,2,6.2L63.9,106.2z M74.9,118.7l-18.2,57
			c1.8,0.6,3.6,1.1,5.5,1.5L74.9,118.7z M51,173.6c1.4,0.5,2.7,1,4.1,1.5L72,122L51,173.6z M75.9,23.3c-3.1,0.1-6.2,0.5-9.3,1
			L78.3,89L75.9,23.3z M77.4,115.4L64,177.5c2.5,0.5,5,0.9,7.5,1.1L77.4,115.4z M79.9,118.9L78.1,179c0.5,0,1,0,1.4,0
			c1.5,0,3-0.1,4.4-0.1L79.9,118.9z M52.1,103l-50.3,1.8c0.1,1.1,0.1,2.1,0.2,3.2L52.1,103z M21.3,152.9c1.4,1.6,2.8,3,4.3,4.5
			L67.3,113L21.3,152.9z M72.3,112.9l-37.1,52.4c2.2,1.5,4.5,3,6.9,4.3L72.3,112.9z M72.4,116.5l-28.7,53.9c1.8,1,3.7,1.9,5.7,2.7
			L72.4,116.5z M65,24.6c-2.5,0.5-4.9,1.1-7.3,1.8L76.1,87L65,24.6z M65.3,77.7l-24.7-44c-0.9,0.5-1.8,1.1-2.7,1.7L65.3,77.7z
			 M71.7,78.4L56,26.9c-1.2,0.4-2.5,0.8-3.7,1.3L71.7,78.4z M74.4,90.3L50.7,28.8c-3,1.2-5.9,2.5-8.6,4.1L74.4,90.3z M68,90.4
			L25,45.6c-1.6,1.6-3.2,3.3-4.6,5L68,90.4z M1.8,96c-0.1,1.7-0.2,3.4-0.2,5.1c0,0.6,0,1.3,0,1.9l62.6-2.3L1.8,96z M66.9,99.3
			L3.2,85.6c-0.6,2.9-1,5.8-1.2,8.7L66.9,99.3z M61.5,91.8l-50-28.6c-0.8,1.4-1.6,2.9-2.3,4.4L61.5,91.8z M64.4,95.1L8.5,69.2
			c-0.9,2-1.7,4-2.4,6.1L64.4,95.1z M65.1,97.2L5.5,76.9c-0.8,2.3-1.4,4.6-1.9,7L65.1,97.2z M69.9,87.9L36.4,36.3
			c-1.8,1.2-3.6,2.5-5.2,3.8L69.9,87.9z M71.5,95.5L19.2,51.9c-2.5,3.1-4.8,6.4-6.9,9.8L71.5,95.5z M65.9,85.7l-36-44.5
			c-1.2,1-2.4,2.1-3.6,3.2L65.9,85.7z"/>
	</g>
	<rect x="-77.3" y="-54.7" class="st2" width="704.3" height="311.7"/>
	<path class="st3" d="M183.4,83.9h11.3l2.5,5.7h3.2l-10-22.1h-2.6l-10,22.1h3.1L183.4,83.9z M184.6,81.2l4.5-10l4.5,10H184.6z
		 M206.8,89.6h-2.9v-22h2.9l7.7,11.5l7.7-11.5h2.9v22h-3V72.8l-7.4,10.9h-0.4l-0.1-0.1l-7.3-10.8L206.8,89.6L206.8,89.6z
		 M247.1,89.6h-16.2v-22h16v2.7h-13.1v6.8h11.7v2.7h-11.7v7H247v2.8H247.1z M254.2,81.2h5.7l6.2,8.3h3.6l-6.7-8.8
		c3.6-0.8,5.6-3.1,5.6-6.5c0-1.7-0.6-3.3-1.7-4.4c-1.4-1.4-3.7-2.2-6.3-2.2h-9.5v22h3L254.2,81.2L254.2,81.2z M254.2,70.4h6.4
		c3.3,0,5.2,1.5,5.2,4s-2.1,4.1-5.3,4.1h-6.3L254.2,70.4L254.2,70.4z M273.8,80.1V67.6h3v22h-3V80.1z M281.6,78.6
		c0-6.4,4.9-11.4,11.1-11.4c4.3,0,6.6,1.7,8.6,3.5l0.2,0.2l-2,2.2l-0.2-0.2c-2.1-2-4.1-2.9-6.6-2.9c-4.6,0-8,3.7-8,8.5
		c0,4.9,3.5,8.7,8,8.7c3,0,4.8-1.2,6.7-3l0.2-0.2l2,1.9l-0.2,0.2c-1.9,1.9-4.4,3.8-8.8,3.8C286.3,89.9,281.6,85.1,281.6,78.6z
		 M309.1,83.9h11.3l2.5,5.7h3.2l-10-22.1h-2.6l-10,22.1h3.1L309.1,83.9z M310.3,81.2l4.5-10l4.5,10H310.3z M332.5,89.6h-2.9v-22h2.7
		l0.1,0.1l13,16.6V67.6h2.9v22H346l-0.1-0.1l-13.4-17V89.6z M366.9,83.9h11.3l2.5,5.7h3.2l-10-22.1h-2.6l-10,22.1h3.1L366.9,83.9z
		 M368.1,81.2l4.5-10l4.5,10H368.1z M385.3,78.6c0-6.4,4.9-11.4,11.1-11.4c4.3,0,6.6,1.7,8.6,3.5l0.2,0.2l-2,2.2l-0.2-0.2
		c-2.1-2-4.1-2.9-6.6-2.9c-4.6,0-8,3.7-8,8.5c0,4.9,3.5,8.7,8,8.7c3,0,4.8-1.2,6.7-3l0.2-0.2l2,1.9l-0.2,0.2
		c-1.9,1.9-4.4,3.8-8.8,3.8C390,89.9,385.3,85.1,385.3,78.6z M412.8,83.9h11.3l2.5,5.7h3.2l-10-22.1h-2.6l-10,22.1h3.1L412.8,83.9z
		 M414,81.2l4.5-10l4.5,10H414z M452.7,78.5c0-6.3-4.9-10.9-11.7-10.9h-7.7v22h7.7C447.8,89.6,452.7,84.9,452.7,78.5z M441.1,86.8
		h-4.8V70.4h4.8c5.1,0,8.6,3.4,8.6,8.3C449.7,83.4,446.1,86.8,441.1,86.8z M473.7,89.6h-16.2v-22h16v2.7h-13.1v6.8h11.7v2.7h-11.7v7
		h13.2v2.8H473.7z M480.7,89.6h-2.9v-22h2.9l7.7,11.5l7.7-11.5h2.9v22h-3V72.8l-7.4,10.9h-0.4l-0.1-0.1l-7.3-10.8v16.8H480.7z
		 M511.4,80.9l-9.2-13.3h3.6l0.1,0.1l7,10.4l7.2-10.5h3.5l-9.2,13.3v8.7h-3L511.4,80.9L511.4,80.9z M189,131c6.3,0,11.2-5,11.2-11.4
		s-4.8-11.3-11.2-11.3c-6.3,0-11.2,5-11.2,11.4S182.6,131,189,131z M189,111c4.6,0,8.2,3.8,8.2,8.6c0,4.9-3.5,8.5-8.1,8.5
		c-4.7,0-8.2-3.7-8.2-8.7C180.8,114.7,184.3,111,189,111z M207.6,111.4v7.1h11.6v2.7h-11.6v9.3h-3v-22h15.9v2.8L207.6,111.4
		L207.6,111.4z M243.6,108.3c-6.3,0-11.2,5-11.2,11.4s4.8,11.3,11.2,11.3c6.3,0,11.2-5,11.2-11.4C254.8,113.1,250,108.3,243.6,108.3
		z M243.6,128.2c-4.7,0-8.2-3.7-8.2-8.7c0-4.9,3.5-8.5,8.1-8.5c4.7,0,8.2,3.7,8.2,8.6C251.7,124.5,248.3,128.2,243.6,128.2z
		 M259.2,108.6v22h3V123h4.9c4.3,0,8.7-2.3,8.7-7.3c0-4.3-3.3-7.1-8.3-7.1H259.2z M267.2,120.3h-5v-8.9h5.2c3.5,0,5.5,1.6,5.5,4.5
		C272.8,118.5,270.6,120.3,267.2,120.3z M294.1,108.6h3v22h-3V121h-11.8v9.7h-3v-22h3v9.5h11.8V108.6z M307.6,118v-6.6h-7.2v-2.8
		h17.4v2.8h-7.2v19.2h-3L307.6,118L307.6,118z M336.1,108.6h3v22h-3V121h-11.9v9.7h-3v-22h3v9.5h11.9V108.6z M359.1,124.9l2.5,5.7
		h3.2l-10-22.1h-2.6l-10,22.1h3.1l2.5-5.7C347.8,124.9,359.1,124.9,359.1,124.9z M357.9,122.2h-9l4.5-10L357.9,122.2z M370.9,108.6
		v19.2H383v2.8h-15v-22C368,108.6,370.9,108.6,370.9,108.6z M404.5,130.6v-16.8l-7.4,10.9h-0.4l-0.1-0.1l-7.3-10.8v16.8h-2.9v-22
		h2.9l7.7,11.5l7.7-11.5h2.9v22H404.5z M411.9,119.7c0,6.4,4.8,11.3,11.2,11.3c6.3,0,11.2-5,11.2-11.4s-4.8-11.3-11.2-11.3
		C416.8,108.3,411.9,113.2,411.9,119.7z M423.1,128.2c-4.7,0-8.2-3.7-8.2-8.7c0-4.9,3.5-8.5,8.1-8.5s8.2,3.8,8.2,8.6
		C431.2,124.5,427.7,128.2,423.1,128.2z M441.7,127.8h12.1v2.8h-15v-22h3v19.2H441.7z M477.5,119.6c0-6.4-4.8-11.3-11.2-11.3
		c-6.3,0-11.2,5-11.2,11.4s4.8,11.3,11.2,11.3C472.5,131,477.5,126,477.5,119.6z M466.3,128.2c-4.7,0-8.2-3.7-8.2-8.7
		c0-4.9,3.5-8.5,8.1-8.5s8.2,3.8,8.2,8.6C474.4,124.5,470.9,128.2,466.3,128.2z M491.9,131c-6.6,0-11.2-4.6-11.2-11.3
		c0-6.4,4.8-11.4,11-11.4c3.3,0,5.7,0.8,8.2,2.9l0.2,0.2l-1.9,2.2l-0.2-0.2c-1.4-1.2-3.2-2.4-6.4-2.4c-4.4,0-7.9,3.7-7.9,8.5
		c0,5.2,3.3,8.7,8.2,8.7c2.1,0,4.3-0.7,5.9-2v-4.9h-6.5v-2.7h9.4v8.9l-0.1,0.1C499.3,128.9,496.3,131,491.9,131z M511.4,130.6v-8.7
		l-9.2-13.3h3.6l0.1,0.1l7,10.4l7.2-10.5h3.5l-9.2,13.3v8.7H511.4z M184.8,149.6h-5.1V163h1.8v-4.6h3c2.6,0,5.3-1.4,5.3-4.4l0,0
		C189.9,151.3,187.9,149.6,184.8,149.6z M181.5,151.3h3.2c2.2,0,3.4,1,3.4,2.7l0,0c0,1.6-1.4,2.8-3.5,2.8h-3.1L181.5,151.3
		L181.5,151.3z M197.9,152.9h0.1v1.8h-0.2c-2.2,0-3.7,1.7-3.7,4.3v4h-1.7v-10h1.7v2.1c0.8-1.4,2.1-2.3,3.6-2.3
		C197.8,152.9,197.8,152.9,197.9,152.9z M204.5,152.9c-2.9,0-5.2,2.3-5.2,5.2l0,0c0,2.9,2.3,5.2,5.2,5.2s5.2-2.3,5.2-5.2l0,0
		C209.7,155.1,207.4,152.9,204.5,152.9z M204.5,161.7c-1.9,0-3.4-1.6-3.4-3.6l0,0c0-2.1,1.5-3.6,3.4-3.6s3.5,1.6,3.5,3.6l0,0
		C208,160.1,206.5,161.7,204.5,161.7z M214.4,153.1h3.1v1.6h-3.1v5.5c0,1,0.5,1.5,1.5,1.5c0.5,0,0.9-0.1,1.3-0.3l0.2-0.1v1.5h-0.1
		c-0.6,0.3-1.1,0.4-1.8,0.4c-1.9,0-2.9-1-2.9-2.9v-5.7h-1.3V153h1.3v-2.9h1.7v3H214.4z M223.8,152.9c-2.7,0-4.8,2.2-4.8,5.2
		s2.1,5.2,5,5.2c1.7,0,2.9-0.6,4.1-1.9l0.1-0.1l-1.1-1l-0.1,0.1c-0.9,0.9-1.8,1.3-3,1.3c-1.7,0-3-1.2-3.3-2.9h7.7v-0.1
		c0-0.2,0-0.4,0-0.5C228.5,155,226.6,152.9,223.8,152.9z M223.8,154.4c1.9,0,2.8,1.5,2.9,3h-5.9C221,155.6,222.3,154.4,223.8,154.4z
		 M238.7,160.2l1.1,1.1l-0.1,0.1c-0.8,0.9-2,1.9-4.1,1.9c-2.8,0-5.1-2.3-5.1-5.2l0,0c0-2.9,2.3-5.2,5.1-5.2c2.1,0,3.2,0.9,4,1.8
		l0.1,0.1l-1.1,1.2l-0.1-0.1c-0.7-0.7-1.5-1.4-2.8-1.4c-1.9,0-3.3,1.6-3.3,3.6l0,0c0,2,1.5,3.6,3.4,3.6c1,0,2-0.5,2.9-1.4
		L238.7,160.2z M244.6,153.1h3.1v1.6h-3.1v5.5c0,1,0.5,1.5,1.5,1.5c0.5,0,0.9-0.1,1.3-0.3l0.2-0.1v1.5h-0.1
		c-0.6,0.3-1.1,0.4-1.8,0.4c-1.9,0-2.9-1-2.9-2.9v-5.7h-1.3V153h1.3v-2.9h1.7v3H244.6z M250,149.3h0.9h1v1.9H250V149.3z
		 M250.1,159.2v-6.1h1.7v10h-1.7V159.2z M264,156.9v6.2h-1.7v-5.8c0-1.7-0.9-2.8-2.5-2.8s-2.8,1.2-2.8,2.9v5.7h-1.7v-10h1.7v1.4
		c0.8-1,1.8-1.6,3.2-1.6C262.5,152.9,264,154.4,264,156.9z M274.9,154.5c-1-1.1-2.2-1.7-3.7-1.7c-2.3,0-4.7,1.8-4.7,4.7l0,0
		c0,2.9,2.4,4.7,4.7,4.7c1.5,0,2.7-0.6,3.7-1.8v0.7c0,2.1-1.2,3.3-3.4,3.3c-1.3,0-2.5-0.4-3.6-1.2l-0.1-0.1l-0.8,1.4l0.1,0.1
		c1.3,0.9,2.8,1.4,4.5,1.4c1.6,0,2.9-0.5,3.8-1.3s1.3-2,1.3-3.5V153H275L274.9,154.5L274.9,154.5z M271.5,160.7
		c-1.8,0-3.2-1.4-3.2-3.2l0,0c0-1.8,1.4-3.1,3.2-3.1c1.7,0,3.4,1.2,3.4,3.1l0,0C274.9,159.5,273.2,160.7,271.5,160.7z M295,159.3
		L295,159.3c0,2.3-1.9,3.9-4.6,3.9c-2.1,0-3.8-0.7-5.5-2.1l-0.1-0.1l1.1-1.3l0.1,0.1c1.4,1.3,2.7,1.8,4.4,1.8c1.6,0,2.8-0.9,2.8-2.1
		l0,0c0-1.1-0.5-1.8-3.3-2.4c-2.7-0.6-4.5-1.5-4.5-3.9l0,0c0-2.2,1.9-3.7,4.5-3.7c1.9,0,3.3,0.5,4.7,1.6l0.1,0.1l-1,1.4l-0.1-0.1
		c-1.2-1-2.3-1.4-3.7-1.4c-1.6,0-2.7,0.8-2.7,2l0,0c0,1.1,0.5,1.8,3.5,2.4C293.6,156.2,295,157.3,295,159.3z M297.9,156.7v-3.6h1.7
		v10h-1.7V156.7z M297.8,149.3h0.9h1.1v1.9h-1.9v-1.9H297.8z M310.7,154.5c-1-1.1-2.2-1.7-3.7-1.7c-2.3,0-4.7,1.8-4.7,4.7l0,0
		c0,2.9,2.4,4.7,4.7,4.7c1.5,0,2.7-0.6,3.7-1.8v0.7c0,2.1-1.2,3.3-3.4,3.3c-1.3,0-2.5-0.4-3.6-1.2l-0.1-0.1l-0.8,1.4l0.1,0.1
		c1.3,0.9,2.8,1.4,4.5,1.4c1.6,0,2.9-0.5,3.8-1.3s1.3-2,1.3-3.5V153h-1.7L310.7,154.5L310.7,154.5z M307.3,160.7
		c-1.8,0-3.2-1.4-3.2-3.2l0,0c0-1.8,1.4-3.1,3.2-3.1c1.7,0,3.4,1.2,3.4,3.1l0,0C310.7,159.5,308.9,160.7,307.3,160.7z M324.4,156.9
		v6.2h-1.7v-5.8c0-1.7-1-2.8-2.5-2.8c-1.6,0-2.8,1.2-2.8,2.9v5.7h-1.7v-14h1.7v5.4c0.8-1,1.8-1.6,3.2-1.6
		C322.9,152.9,324.4,154.4,324.4,156.9z M329.6,153.1h3.1v1.6h-3.1v5.5c0,1,0.5,1.5,1.5,1.5c0.5,0,0.9-0.1,1.3-0.3l0.2-0.1v1.5h-0.1
		c-0.6,0.3-1.1,0.4-1.8,0.4c-1.9,0-2.9-1-2.9-2.9v-5.7h-1.4V153h1.4v-2.9h1.7L329.6,153.1L329.6,153.1z M335.2,162.1v-1.3h2v2.2h-2
		V162.1z M348,161.4h8.1v1.6h-9.9v-13.4h9.8v1.6h-8v4.2h7.2v1.6H348V161.4z M373.7,156.9v6.1H372v-5.8c0-1.8-0.9-2.8-2.4-2.8
		c-1.3,0-2.5,0.9-2.5,2.9v5.7h-1.7v-5.8c0-1.7-0.9-2.7-2.4-2.7s-2.6,1.2-2.6,2.9v5.7h-1.7v-10h1.7v1.3c0.6-0.8,1.5-1.5,3-1.5
		c1.4,0,2.5,0.6,3.1,1.8c0.9-1.2,2-1.8,3.4-1.8C372.2,152.9,373.7,154.4,373.7,156.9z M382.2,152.9c-1.4,0-2.6,0.6-3.6,1.9v-1.7
		h-1.7v13h1.7v-4.6c0.9,1.2,2.1,1.8,3.6,1.8c2.3,0,4.8-1.8,4.8-5.2l0,0C387,154.7,384.5,152.9,382.2,152.9z M382,154.4
		c1.9,0,3.3,1.5,3.3,3.6l0,0c0,2.1-1.3,3.6-3.3,3.6c-1.7,0-3.4-1.4-3.4-3.6l0,0C378.6,155.8,380.3,154.4,382,154.4z M394.4,152.9
		c-2.9,0-5.2,2.3-5.2,5.2l0,0c0,2.9,2.3,5.2,5.2,5.2c2.9,0,5.2-2.3,5.2-5.2l0,0C399.5,155.1,397.3,152.9,394.4,152.9z M394.4,161.7
		c-1.9,0-3.4-1.6-3.4-3.6l0,0c0-2.1,1.5-3.6,3.4-3.6s3.5,1.6,3.5,3.6l0,0C397.8,160.1,396.3,161.7,394.4,161.7z M414.1,153.1h1.8
		l-3.5,10h-1.5l-2.5-7.4l-2.5,7.4h-1.5l-3.5-10h1.8v0.1l2.4,7.4l2.5-7.5h1.4v0.1l2.5,7.4L414.1,153.1z M422.1,152.9
		c-2.7,0-4.8,2.2-4.8,5.2s2.1,5.2,5,5.2c1.7,0,2.9-0.6,4.1-1.9l0.1-0.1l-1.1-1l-0.1,0.1c-0.9,0.9-1.8,1.3-3,1.3
		c-1.7,0-3-1.2-3.3-2.9h7.7v-0.1c0-0.2,0-0.4,0-0.5C426.7,155,424.9,152.9,422.1,152.9z M422,154.4c1.9,0,2.8,1.5,2.9,3H419
		C419.3,155.6,420.5,154.4,422,154.4z M435,152.9h0.1v1.8h-0.3c-2.2,0-3.7,1.7-3.7,4.3v4h-1.7v-10h1.7v2.1c0.8-1.4,2.1-2.3,3.6-2.3
		C434.8,152.9,434.9,152.9,435,152.9z M437.2,149.3h0.8h1.2v1.9h-1.9v-1.9H437.2z M437.3,158.6v-5.5h1.7v10h-1.7V158.6z
		 M451.2,156.9v6.2h-1.7v-5.8c0-1.7-1-2.8-2.5-2.8c-1.6,0-2.8,1.2-2.8,2.9v5.7h-1.7v-10h1.7v1.4c0.8-1,1.8-1.6,3.2-1.6
		C449.7,152.9,451.2,154.4,451.2,156.9z M462.1,154.5c-1-1.1-2.2-1.7-3.6-1.7c-2.3,0-4.7,1.8-4.7,4.7l0,0c0,2.9,2.4,4.7,4.7,4.7
		c1.5,0,2.7-0.6,3.7-1.8v0.7c0,2.1-1.2,3.3-3.4,3.3c-1.3,0-2.5-0.4-3.7-1.2l-0.1-0.1l-0.8,1.4l0.1,0.1c1.3,0.9,2.8,1.4,4.5,1.4
		c1.6,0,2.9-0.5,3.8-1.3c0.8-0.8,1.3-2,1.3-3.5V153h-1.7L462.1,154.5L462.1,154.5z M458.7,160.7c-1.8,0-3.2-1.4-3.2-3.2l0,0
		c0-1.8,1.4-3.1,3.2-3.1c1.7,0,3.4,1.2,3.4,3.1l0,0C462.1,159.5,460.4,160.7,458.7,160.7z M474.7,161.4h7.4v1.7h-9.2v-13.4h1.8
		L474.7,161.4L474.7,161.4z M484.5,149.3h0.9h1v1.9h-1.9V149.3z M484.6,155.8V153h1.7v10h-1.7V155.8z M496.8,153.1h1.9l-0.1,0.2
		l-4.3,9.9h-1.5l-4.3-10h1.9l3.2,7.8L496.8,153.1z M504.6,152.9c-2.7,0-4.8,2.2-4.8,5.2s2.1,5.2,5,5.2c1.7,0,2.9-0.6,4.1-1.9
		l0.1-0.1l-1.1-1l-0.1,0.1c-0.9,0.9-1.8,1.3-3,1.3c-1.7,0-3-1.2-3.3-2.9h7.7v-0.1c0-0.2,0-0.4,0-0.5
		C509.3,155,507.4,152.9,504.6,152.9z M504.6,154.4c1.9,0,2.8,1.5,2.9,3h-5.9C501.8,155.6,503,154.4,504.6,154.4z M518.8,160.1
		L518.8,160.1c0,1.9-1.4,3.1-3.6,3.1c-1.4,0-3-0.6-4.1-1.5l-0.1-0.1l0.9-1.3l0.1,0.1c1.1,0.8,2.2,1.2,3.3,1.2s1.9-0.6,1.9-1.4l0,0
		c0-0.9-1-1.2-2.3-1.6c-1.4-0.4-3.3-0.9-3.3-2.9l0,0c0-1.7,1.4-2.9,3.4-2.9c1.2,0,2.5,0.4,3.6,1.1l0.1,0.1l-0.8,1.3l-0.1-0.1
		c-0.9-0.6-1.9-0.9-2.8-0.9c-1,0-1.7,0.5-1.7,1.3l0,0c0,0.8,1.1,1.2,2.4,1.5l0,0C516.8,157.6,518.8,158.2,518.8,160.1z M521.3,161.8
		v-1h2v2.2h-2V161.8z"/>
	<path class="st4" d="M156.4,101.2c0,43-34.9,77.9-77.9,77.9S0.6,144.2,0.6,101.2s34.9-77.9,77.9-77.9
		C121.6,23.3,156.4,58.1,156.4,101.2z"/>
	<path class="st5" d="M117.5,168.7c-3.2,1.8-6.5,3.5-10,4.8l-24.3-62.9L117.5,168.7z M85.8,111.8l33.1,56c2.5-1.5,4.9-3.2,7.2-5
		L85.8,111.8z M89.6,178.3l-8.9-57.1l3.9,57.6C86.4,178.7,88,178.5,89.6,178.3z M91.2,115.8l36.3,46c1.4-1.1,2.7-2.2,4-3.4
		L91.2,115.8z M91.2,111.2l46.4,40.9c1.4-1.7,2.8-3.4,4.1-5.2L91.2,111.2z M82.3,74.4L91,24.3c-1.1-0.2-2.2-0.3-3.2-0.4L82.3,74.4z
		 M81.9,112.1l14.3,65c3.3-0.8,6.5-1.7,9.7-2.9L81.9,112.1z M156.2,95.4c-0.3-4.3-1-8.6-2-12.7l-66.5,17L156.2,95.4z M78.5,74.1
		l1.4-50.8c-0.5,0-0.9,0-1.4,0c-0.6,0-1.3,0-1.9,0L78.5,74.1z M97.9,103.3l57.8,9c0.2-1.7,0.4-3.4,0.6-5.2L97.9,103.3z M93.6,104.4
		l60.3,16.5c0.6-2.2,1.1-4.5,1.4-6.9L93.6,104.4z M86.8,105.9l55.9,39.5c2.4-3.4,4.5-7,6.3-10.8L86.8,105.9z M88.4,104.8l61.2,28.2
		c1.5-3.4,2.8-6.8,3.8-10.4L88.4,104.8z M81.6,88.7l19.7-62.1c-2.8-0.8-5.6-1.5-8.5-2.1L81.6,88.7z M91,93.8l56.5-29
		c-1.2-2.2-2.5-4.4-3.9-6.5L91,93.8z M152.6,76.8L99.5,94.9L153.8,81C153.4,79.6,153,78.2,152.6,76.8z M134.7,47.2
		c-0.7-0.7-1.4-1.5-2.2-2.2L98.3,81.4L134.7,47.2z M75.4,179l1.5-50.6l-4.7,50.4C73.2,178.9,74.3,179,75.4,179z M156.4,105.4
		c0.1-1.4,0.1-2.8,0.1-4.2c0-1.4,0-2.7-0.1-4.1L92,101.2L156.4,105.4z M81.6,23.3l-1.6,56l6-55.7C84.6,23.5,83.1,23.4,81.6,23.3z
		 M92.4,114.5l40.4,42.6c1.3-1.2,2.5-2.5,3.7-3.8L92.4,114.5z M89.6,96.5L152,75.1c-1.1-3-2.3-5.9-3.7-8.8L89.6,96.5z M86.2,86.3
		l30.7-52.9c-1.8-1-3.7-2-5.6-2.9L86.2,86.3z M94.5,89.3l48.1-32.5c-1-1.4-2-2.7-3-4.1L94.5,89.3z M85.9,90.3L125.5,39
		c-2.3-1.7-4.7-3.3-7.1-4.8L85.9,90.3z M83.9,87.2l25.8-57.4c-2.2-1-4.5-1.8-6.8-2.6L83.9,87.2z M96.5,85.5l42-34.1
		c-0.8-1-1.7-2-2.6-3L96.5,85.5z M90.3,87.4l41-43.6c-1.4-1.3-2.9-2.5-4.4-3.7L90.3,87.4z M83.6,127.9l7.8,50.1
		c1.1-0.2,2.1-0.4,3.2-0.6L83.6,127.9z M55.4,114.3L9.9,138.1c0.5,1,1.1,1.9,1.7,2.9L55.4,114.3z M64.8,110.6l-52.3,31.9
		c1.1,1.8,2.3,3.6,3.6,5.3L64.8,110.6z M57.3,118.5l-40.1,30.6c0.7,0.8,1.3,1.7,2,2.5L57.3,118.5z M65.3,107.1L6,129.7
		c0.9,2.4,2,4.7,3.1,6.9L65.3,107.1z M67.8,103.1l-66.7,6.6c0.4,3.6,1,7.1,1.9,10.5L67.8,103.1z M70.7,110.8l-44.8,47.7
		c2.2,2,4.6,4,7,5.7L70.7,110.8z M62.9,106.2L3.4,121.9c0.6,2.1,1.2,4.1,2,6.2L62.9,106.2z M73.9,118.7l-18.2,57
		c1.8,0.6,3.6,1.1,5.5,1.5L73.9,118.7z M50,173.6c1.4,0.5,2.7,1,4.1,1.5L71,122L50,173.6z M74.9,23.3c-3.1,0.1-6.2,0.5-9.3,1
		L77.3,89L74.9,23.3z M76.4,115.4L63,177.5c2.5,0.5,5,0.9,7.5,1.1L76.4,115.4z M78.9,118.9L77.1,179c0.5,0,1,0,1.4,0
		c1.5,0,3-0.1,4.4-0.1L78.9,118.9z M51.1,103l-50.3,1.8c0.1,1.1,0.1,2.1,0.2,3.2L51.1,103z M20.3,152.9c1.4,1.6,2.8,3,4.3,4.5
		L66.3,113L20.3,152.9z M71.3,112.9l-37.1,52.4c2.2,1.5,4.5,3,6.9,4.3L71.3,112.9z M71.4,116.5l-28.7,53.9c1.8,1,3.7,1.9,5.7,2.7
		L71.4,116.5z M64,24.6c-2.5,0.5-4.9,1.1-7.3,1.8L75.1,87L64,24.6z M64.3,77.7l-24.7-44c-0.9,0.5-1.8,1.1-2.7,1.7L64.3,77.7z
		 M70.7,78.4L55,26.9c-1.2,0.4-2.5,0.8-3.7,1.3L70.7,78.4z M73.4,90.3L49.7,28.8c-3,1.2-5.9,2.5-8.6,4.1L73.4,90.3z M67,90.4
		L24,45.6c-1.6,1.6-3.2,3.3-4.6,5L67,90.4z M0.8,96c-0.1,1.7-0.2,3.4-0.2,5.1c0,0.6,0,1.3,0,1.9l62.6-2.3L0.8,96z M65.9,99.3
		L2.2,85.6c-0.6,2.9-1,5.8-1.2,8.7L65.9,99.3z M60.5,91.8l-50-28.6c-0.8,1.4-1.6,2.9-2.3,4.4L60.5,91.8z M63.4,95.1L7.5,69.2
		c-0.9,2-1.7,4-2.4,6.1L63.4,95.1z M64.1,97.2L4.5,76.9c-0.8,2.3-1.4,4.6-1.9,7L64.1,97.2z M68.9,87.9L35.4,36.3
		c-1.8,1.2-3.6,2.5-5.2,3.8L68.9,87.9z M70.5,95.5L18.2,51.9c-2.5,3.1-4.8,6.4-6.9,9.8L70.5,95.5z M64.9,85.7l-36-44.5
		c-1.2,1-2.4,2.1-3.6,3.2L64.9,85.7z"/>
</g>
<g id="TM_2_" class="st0">
	<g id="TM_6_">
		<g>
			<path class="st1" d="M1177.2,90.4h3.9v10.3h2.2V90.4h3.9v-2h-10V90.4z M1198.5,88.4l-3.7,5.8l-3.7-5.8h-2.3v12.3h2.1v-8.8
				l3.8,5.8h0.1l3.9-5.8v8.8h2.2V88.4H1198.5z"/>
		</g>
	</g>
</g>
<g id="Basic_and_Clinical_Science_Course_1_" class="st0">
	<g id="Basic_and_Clinical_Science_Course">
		<g>
			<path class="st6" d="M663.9,112.8c1.9-0.8,3.9-2.5,3.9-5.7V107c0-1.6-0.6-2.9-1.6-3.9c-1.4-1.4-3.6-2.2-6.4-2.2h-10.4v24.5h10.9
				c5.3,0,8.9-2.5,8.9-6.7v-0.1C669.2,115.4,666.8,113.7,663.9,112.8z M652.2,103.5h7.4c3.5,0,5.4,1.6,5.4,4v0.1
				c0,2.9-2.3,4.4-5.6,4.4h-7.2L652.2,103.5L652.2,103.5z M666.4,118.6c0,2.7-2.3,4.4-6,4.4h-8.2v-8.6h7.7
				C664.1,114.4,666.4,115.9,666.4,118.6L666.4,118.6z M679.6,107.2c-2.6,0-4.6,0.6-6.6,1.5l0.8,2.2c1.7-0.8,3.4-1.3,5.5-1.3
				c3.4,0,5.4,1.7,5.4,4.9v0.6c-1.6-0.5-3.2-0.8-5.6-0.8c-4.6,0-7.7,2-7.7,5.8v0.1c0,3.7,3.4,5.6,6.7,5.6c3.2,0,5.3-1.5,6.5-3.1v2.7
				h2.6v-11c0-2.3-0.6-4.1-1.9-5.3C684.1,107.8,682.1,107.2,679.6,107.2z M684.7,118.9c0,2.9-2.7,4.9-6,4.9c-2.4,0-4.5-1.3-4.5-3.6
				v-0.1c0-2.3,1.9-3.7,5.3-3.7c2.2,0,4,0.4,5.3,0.8L684.7,118.9L684.7,118.9z M698.2,115.2c-2.4-0.7-4.6-1.4-4.6-3.1V112
				c0-1.5,1.4-2.6,3.5-2.6c1.7,0,3.7,0.7,5.3,1.7l1.2-2c-1.9-1.2-4.3-2-6.5-2c-3.6,0-6.1,2.1-6.1,5.2v0.1c0,3.3,3.1,4.3,6,5.1
				c2.4,0.7,4.5,1.4,4.5,3.2v0.1c0,1.7-1.6,2.9-3.7,2.9c-2.1,0-4.3-0.8-6.2-2.3l-1.4,1.9c2,1.6,4.9,2.7,7.5,2.7c3.6,0,6.4-2,6.4-5.4
				v-0.1C704,117.1,701,116,698.2,115.2z M707.8,125.5h2.7v-18.1h-2.7V125.5z M707.7,103.5h3.1v-3h-3.1V103.5z M723.7,123.5
				c-3.8,0-6.6-3.1-6.6-7v-0.1c0-3.9,2.8-7,6.5-7c2.4,0,4.1,1.2,5.5,2.7l1.8-1.9c-1.7-1.8-3.8-3.2-7.2-3.2c-5.3,0-9.3,4.3-9.3,9.4
				v0.1c0,5.1,4,9.4,9.3,9.4c3.4,0,5.6-1.5,7.4-3.5l-1.7-1.6C727.7,122.3,726,123.5,723.7,123.5z M749.8,107.2
				c-2.6,0-4.6,0.6-6.6,1.5l0.8,2.2c1.7-0.8,3.4-1.3,5.5-1.3c3.4,0,5.4,1.7,5.4,4.9v0.6c-1.6-0.5-3.2-0.8-5.6-0.8
				c-4.6,0-7.7,2-7.7,5.8v0.1c0,3.7,3.4,5.6,6.7,5.6c3.2,0,5.3-1.5,6.5-3.1v2.7h2.6v-11c0-2.3-0.6-4.1-1.9-5.3
				C754.3,107.8,752.4,107.2,749.8,107.2z M754.9,118.9c0,2.9-2.7,4.9-6,4.9c-2.4,0-4.5-1.3-4.5-3.6v-0.1c0-2.3,1.9-3.7,5.3-3.7
				c2.2,0,4,0.4,5.3,0.8L754.9,118.9L754.9,118.9z M770.7,107c-3.1,0-5,1.6-6.2,3.5v-3.1h-2.7v18.1h2.7v-10.3c0-3.4,2.3-5.7,5.4-5.7
				c3.2,0,5,2.1,5,5.5v10.6h2.7v-11.2C777.6,110,775.1,107,770.7,107z M796.4,110.9c-1.4-2-3.6-3.8-6.9-3.8c-4.3,0-8.6,3.5-8.6,9.4
				v0.1c0,5.9,4.3,9.4,8.6,9.4c3.3,0,5.4-1.9,6.9-4v3.6h2.7V100h-2.7V110.9z M796.5,116.5c0,4.2-3.2,7-6.5,7c-3.4,0-6.4-2.7-6.4-7
				v-0.1c0-4.4,2.9-7,6.4-7C793.4,109.5,796.5,112.2,796.5,116.5L796.5,116.5z M824.5,123.4c-5.4,0-9.5-4.4-9.5-10.1v-0.1
				c0-5.6,4.1-10,9.5-10c3.3,0,5.6,1.4,7.7,3.4l1.9-2c-2.4-2.3-5.1-3.9-9.5-3.9c-7.2,0-12.4,5.7-12.4,12.6v0.1
				c0,7,5.2,12.6,12.3,12.6c4.4,0,7.2-1.7,9.8-4.3l-1.8-1.8C830,122.1,827.8,123.4,824.5,123.4z M837.6,125.5h2.7V100h-2.7V125.5z
				 M845.2,103.5h3.1v-3h-3.1V103.5z M845.3,125.5h2.7v-18.1h-2.7V125.5z M861.8,107c-3.1,0-5,1.6-6.2,3.5v-3.1h-2.7v18.1h2.7v-10.3
				c0-3.4,2.3-5.7,5.4-5.7c3.2,0,5,2.1,5,5.5v10.6h2.7v-11.2C868.7,110,866.1,107,861.8,107z M873.1,103.5h3.1v-3h-3.1V103.5z
				 M873.2,125.5h2.7v-18.1h-2.7V125.5z M889.1,123.5c-3.8,0-6.6-3.1-6.6-7v-0.1c0-3.9,2.8-7,6.5-7c2.4,0,4.1,1.2,5.5,2.7l1.8-1.9
				c-1.7-1.8-3.8-3.2-7.2-3.2c-5.3,0-9.3,4.3-9.3,9.4v0.1c0,5.1,4,9.4,9.3,9.4c3.4,0,5.6-1.5,7.4-3.5l-1.7-1.6
				C893.1,122.3,891.4,123.5,889.1,123.5z M906.1,107.2c-2.6,0-4.6,0.6-6.6,1.5l0.8,2.2c1.7-0.8,3.4-1.3,5.5-1.3
				c3.4,0,5.4,1.7,5.4,4.9v0.6c-1.6-0.5-3.2-0.8-5.6-0.8c-4.6,0-7.7,2-7.7,5.8v0.1c0,3.7,3.4,5.6,6.7,5.6c3.2,0,5.3-1.5,6.5-3.1v2.7
				h2.6v-11c0-2.3-0.6-4.1-1.9-5.3C910.6,107.8,908.7,107.2,906.1,107.2z M911.3,118.9c0,2.9-2.7,4.9-6,4.9c-2.4,0-4.5-1.3-4.5-3.6
				v-0.1c0-2.3,1.9-3.7,5.3-3.7c2.2,0,4,0.4,5.3,0.8L911.3,118.9L911.3,118.9z M918.4,125.5h2.7V100h-2.7V125.5z M944.2,111.9
				c-5.4-1.2-6.6-2.4-6.6-4.8V107c0-2.2,2-3.9,5.2-3.9c2.5,0,4.8,0.8,7.1,2.7l1.6-2.1c-2.5-2-5-3-8.6-3c-4.6,0-8,2.8-8,6.7v0.1
				c0,4,2.6,5.8,8.2,7.1c5.1,1.1,6.4,2.4,6.4,4.6v0.1c0,2.4-2.2,4.2-5.4,4.2c-3.4,0-5.8-1.2-8.4-3.5l-1.7,2c2.9,2.6,6.1,3.9,10,3.9
				c4.9,0,8.3-2.7,8.3-6.9v-0.1C952.2,115.1,949.7,113.1,944.2,111.9z M964.2,123.5c-3.8,0-6.6-3.1-6.6-7v-0.1c0-3.9,2.8-7,6.5-7
				c2.4,0,4.1,1.2,5.5,2.7l1.8-1.9c-1.7-1.8-3.8-3.2-7.2-3.2c-5.3,0-9.3,4.3-9.3,9.4v0.1c0,5.1,4,9.4,9.3,9.4c3.4,0,5.6-1.5,7.4-3.5
				l-1.7-1.6C968.3,122.3,966.5,123.5,964.2,123.5z M974.6,103.5h3.1v-3h-3.1V103.5z M974.7,125.5h2.7v-18.1h-2.7V125.5z M989.8,107
				c-5,0-8.7,4.2-8.7,9.4v0.1c0,5.6,4.1,9.4,9,9.4c3.4,0,5.6-1.4,7.4-3.4l-1.7-1.5c-1.5,1.5-3.2,2.6-5.7,2.6c-3.2,0-6-2.2-6.4-6.1
				H998c0-0.3,0-0.5,0-0.9C998.2,111.3,995.2,107,989.8,107z M983.9,115.5c0.3-3.5,2.7-6.1,5.9-6.1c3.6,0,5.5,2.9,5.8,6.1H983.9z
				 M1010.4,107c-3.1,0-5,1.6-6.2,3.5v-3.1h-2.7v18.1h2.7v-10.3c0-3.4,2.3-5.7,5.4-5.7c3.2,0,5,2.1,5,5.5v10.6h2.7v-11.2
				C1017.3,110,1014.8,107,1010.4,107z M1029.9,123.5c-3.8,0-6.6-3.1-6.6-7v-0.1c0-3.9,2.8-7,6.5-7c2.4,0,4.1,1.2,5.5,2.7l1.8-1.9
				c-1.7-1.8-3.8-3.2-7.2-3.2c-5.3,0-9.3,4.3-9.3,9.4v0.1c0,5.1,4,9.4,9.3,9.4c3.4,0,5.6-1.5,7.4-3.5l-1.7-1.6
				C1034,122.3,1032.2,123.5,1029.9,123.5z M1047.2,107c-5,0-8.7,4.2-8.7,9.4v0.1c0,5.6,4.1,9.4,9,9.4c3.4,0,5.6-1.4,7.4-3.4
				l-1.7-1.5c-1.5,1.5-3.2,2.6-5.7,2.6c-3.2,0-6-2.2-6.4-6.1h14.3c0-0.3,0-0.5,0-0.9C1055.6,111.3,1052.6,107,1047.2,107z
				 M1041.3,115.5c0.3-3.5,2.7-6.1,5.9-6.1c3.6,0,5.5,2.9,5.8,6.1H1041.3z M1079.7,123.4c-5.4,0-9.5-4.4-9.5-10.1v-0.1
				c0-5.6,4.1-10,9.5-10c3.3,0,5.6,1.4,7.7,3.4l1.9-2c-2.4-2.3-5.1-3.9-9.5-3.9c-7.2,0-12.4,5.7-12.4,12.6v0.1
				c0,7,5.2,12.6,12.3,12.6c4.4,0,7.2-1.7,9.8-4.3l-1.8-1.8C1085.3,122.1,1083.1,123.4,1079.7,123.4z M1100.5,107
				c-5.4,0-9.4,4.3-9.4,9.4v0.1c0,5.1,3.9,9.4,9.4,9.4c5.4,0,9.5-4.3,9.5-9.4v-0.1C1109.9,111.3,1105.9,107,1100.5,107z
				 M1107.1,116.5c0,3.8-2.7,7-6.6,7c-3.8,0-6.7-3.1-6.7-7v-0.1c0-3.8,2.7-7,6.6-7C1104.2,109.4,1107.1,112.6,1107.1,116.5
				L1107.1,116.5z M1126.2,117.8c0,3.4-2.3,5.7-5.4,5.7c-3.2,0-5-2.1-5-5.5v-10.6h-2.7v11.2c0,4.3,2.5,7.2,6.9,7.2
				c3.1,0,5-1.6,6.2-3.5v3.1h2.7v-18.1h-2.7V117.8z M1136.2,112.1v-4.7h-2.7v18.1h2.7v-7.2c0-5.5,3.2-8.3,7.2-8.3h0.2v-2.9
				C1140.1,107,1137.5,109.1,1136.2,112.1z M1152.8,115.2c-2.4-0.7-4.6-1.4-4.6-3.1V112c0-1.5,1.4-2.6,3.5-2.6
				c1.7,0,3.7,0.7,5.3,1.7l1.2-2c-1.9-1.2-4.3-2-6.5-2c-3.6,0-6.1,2.1-6.1,5.2v0.1c0,3.3,3.1,4.3,6,5.1c2.4,0.7,4.5,1.4,4.5,3.2v0.1
				c0,1.7-1.6,2.9-3.7,2.9s-4.3-0.8-6.2-2.3l-1.4,1.9c2,1.6,4.9,2.7,7.5,2.7c3.6,0,6.4-2,6.4-5.4v-0.1
				C1158.6,117.1,1155.6,116,1152.8,115.2z M1178.2,116.6c0-5.3-3.1-9.5-8.4-9.5c-5,0-8.7,4.2-8.7,9.4v0.1c0,5.6,4.1,9.4,9,9.4
				c3.4,0,5.6-1.4,7.4-3.4l-1.7-1.5c-1.5,1.5-3.2,2.6-5.7,2.6c-3.2,0-6-2.2-6.4-6.1h14.3C1178.2,117.1,1178.2,116.9,1178.2,116.6z
				 M1163.8,115.5c0.3-3.5,2.7-6.1,5.9-6.1c3.6,0,5.5,2.9,5.8,6.1H1163.8z"/>
		</g>
	</g>
</g>
<g id="Self-Assessment_Program_1_" class="st0">
	<g id="Self-Assessment_Program_4_">
		<g>
			<path class="st1" d="M656.5,170c-4.6-1.1-5.6-1.9-5.6-3.7v-0.1c0-1.6,1.4-2.8,3.8-2.8c2.2,0,4.3,0.8,6.4,2.4l2.2-3.1
				c-2.4-1.9-5.1-3-8.6-3c-4.7,0-8.1,2.8-8.1,6.9v0.1c0,4.4,2.8,5.8,7.9,7.1c4.4,1,5.3,1.9,5.3,3.6v0.1c0,1.8-1.6,3-4.2,3
				c-2.9,0-5.2-1.1-7.5-3.1l-2.5,3c2.8,2.5,6.2,3.8,9.9,3.8c5,0,8.4-2.6,8.4-7.1V177C664.1,173,661.5,171.2,656.5,170z M675.2,165.5
				c-5.1,0-8.7,4.2-8.7,9.3v0.1c0,5.5,4,9.3,9.1,9.3c3.3,0,5.6-1.3,7.3-3.3l-2.4-2.1c-1.4,1.4-2.8,2.1-4.8,2.1
				c-2.6,0-4.7-1.6-5.1-4.5h13.1c0-0.4,0.1-0.8,0.1-1.1C683.8,170,680.9,165.5,675.2,165.5z M670.6,173.6c0.4-2.8,2.1-4.7,4.6-4.7
				c2.7,0,4.3,2.1,4.5,4.7H670.6z M687.1,183.7h4.1v-24.6h-4.1V183.7z M697.9,160.3c-0.9,0.9-1.5,2.4-1.5,4.4v1.3h-2.3v3.4h2.3v14.3
				h4.1v-14.3h4.7V166h-4.7v-1c0-1.8,0.8-2.7,2.4-2.7c0.9,0,1.6,0.2,2.4,0.4v-3.4c-0.9-0.3-1.9-0.5-3.3-0.5
				C700.1,158.9,698.8,159.3,697.9,160.3z M706.5,175.4h10v-4h-10V175.4z M727.4,159.9L717,183.7h4.3l2.4-5.7h11.2l2.4,5.7h4.4
				l-10.4-23.8H727.4z M725.2,174.3l4-9.5l4.1,9.5H725.2z M751.4,173.2c-2.1-0.7-4-1.2-4-2.5v-0.1c0-1,0.9-1.8,2.5-1.8
				c1.5,0,3.3,0.6,5,1.7l1.6-2.9c-1.9-1.2-4.3-2-6.5-2c-3.5,0-6.3,2.1-6.3,5.5v0.1c0,3.4,2.9,4.5,5.6,5.2c2.1,0.6,4,1.1,4,2.5v0.1
				c0,1.2-1,1.9-2.8,1.9s-3.9-0.7-5.8-2.2l-1.8,2.8c2.2,1.8,5,2.7,7.6,2.7c3.7,0,6.6-1.9,6.6-5.6v-0.1
				C757,175.2,754,174,751.4,173.2z M767,173.2c-2.1-0.7-4-1.2-4-2.5v-0.1c0-1,0.9-1.8,2.5-1.8c1.5,0,3.3,0.6,5,1.7l1.6-2.9
				c-1.9-1.2-4.3-2-6.5-2c-3.5,0-6.3,2.1-6.3,5.5v0.1c0,3.4,2.9,4.5,5.6,5.2c2.1,0.6,4,1.1,4,2.5v0.1c0,1.2-1,1.9-2.8,1.9
				s-3.9-0.7-5.8-2.2l-1.8,2.8c2.2,1.8,5,2.7,7.6,2.7c3.7,0,6.6-1.9,6.6-5.6v-0.1C772.5,175.2,769.6,174,767,173.2z M783.4,165.5
				c-5.1,0-8.7,4.2-8.7,9.3v0.1c0,5.5,4,9.3,9.1,9.3c3.3,0,5.6-1.3,7.3-3.3l-2.4-2.1c-1.4,1.4-2.8,2.1-4.8,2.1
				c-2.6,0-4.7-1.6-5.1-4.5h13.1c0-0.4,0.1-0.8,0.1-1.1C792,170,789.1,165.5,783.4,165.5z M778.8,173.6c0.4-2.8,2.1-4.7,4.6-4.7
				c2.7,0,4.3,2.1,4.5,4.7H778.8z M802.3,173.2c-2.1-0.7-4-1.2-4-2.5v-0.1c0-1,0.9-1.8,2.5-1.8c1.5,0,3.3,0.6,5,1.7l1.6-2.9
				c-1.9-1.2-4.3-2-6.5-2c-3.5,0-6.3,2.1-6.3,5.5v0.1c0,3.4,2.9,4.5,5.6,5.2c2.1,0.6,4,1.1,4,2.5v0.1c0,1.2-1,1.9-2.8,1.9
				s-3.9-0.7-5.8-2.2l-1.8,2.8c2.2,1.8,5,2.7,7.6,2.7c3.7,0,6.6-1.9,6.6-5.6v-0.1C807.8,175.2,804.9,174,802.3,173.2z M817.8,173.2
				c-2.1-0.7-4-1.2-4-2.5v-0.1c0-1,0.9-1.8,2.5-1.8c1.5,0,3.3,0.6,5,1.7l1.6-2.9c-1.9-1.2-4.3-2-6.5-2c-3.5,0-6.3,2.1-6.3,5.5v0.1
				c0,3.4,2.9,4.5,5.6,5.2c2.1,0.6,4,1.1,4,2.5v0.1c0,1.2-1,1.9-2.8,1.9s-3.9-0.7-5.8-2.2l-1.8,2.8c2.2,1.8,5,2.7,7.6,2.7
				c3.7,0,6.6-1.9,6.6-5.6v-0.1C823.4,175.2,820.4,174,817.8,173.2z M847.4,165.5c-2.7,0-4.6,1.2-6,3.1c-0.9-1.9-2.8-3.1-5.3-3.1
				c-2.7,0-4.3,1.5-5.4,3.1v-2.7h-4.1v17.8h4.1v-10.1c0-2.7,1.6-4.4,3.8-4.4c2.3,0,3.6,1.6,3.6,4.3v10.2h4.1v-10.1
				c0-2.9,1.6-4.4,3.8-4.4c2.3,0,3.6,1.5,3.6,4.4v10.1h4.1v-11.4C853.6,168,851.3,165.5,847.4,165.5z M865.3,165.5
				c-5.1,0-8.7,4.2-8.7,9.3v0.1c0,5.5,4,9.3,9.1,9.3c3.3,0,5.6-1.3,7.3-3.3l-2.4-2.1c-1.4,1.4-2.8,2.1-4.8,2.1
				c-2.6,0-4.7-1.6-5.1-4.5h13.1c0-0.4,0.1-0.8,0.1-1.1C873.8,170,870.9,165.5,865.3,165.5z M860.6,173.6c0.4-2.8,2.1-4.7,4.6-4.7
				c2.7,0,4.3,2.1,4.5,4.7H860.6z M886.6,165.5c-2.8,0-4.4,1.5-5.6,3.1v-2.7h-4.1v17.8h4.1v-10.1c0-2.8,1.7-4.4,4-4.4
				c2.4,0,3.8,1.6,3.8,4.4v10.1h4.1v-11.4C892.9,168.2,890.6,165.5,886.6,165.5z M901.8,161h-4.1v4.9h-2.3v3.5h2.3v9.4
				c0,3.9,2.1,5.2,5.1,5.2c1.6,0,2.7-0.3,3.7-0.9v-3.3c-0.8,0.4-1.6,0.6-2.5,0.6c-1.4,0-2.2-0.6-2.2-2.2v-8.7h4.8V166h-4.8V161z
				 M928.6,160.1h-9.3v23.6h4.2v-7.6h4.7c5.2,0,9.4-2.8,9.4-8.1l0,0C937.6,163.2,934.1,160.1,928.6,160.1z M933.3,168.2
				c0,2.5-2,4.2-5.1,4.2h-4.8v-8.5h4.8C931.4,163.9,933.3,165.3,933.3,168.2L933.3,168.2z M944.4,169.9v-4h-4.1v17.8h4.1v-6.8
				c0-4.7,2.5-7.1,6.1-7.1h0.2v-4.3C947.6,165.4,945.5,167.2,944.4,169.9z M961.2,165.5c-5.5,0-9.5,4.2-9.5,9.3v0.1
				c0,5.1,4,9.2,9.4,9.2c5.5,0,9.5-4.2,9.5-9.3v-0.1C970.7,169.7,966.7,165.5,961.2,165.5z M966.6,174.9c0,3.1-2.1,5.6-5.4,5.6
				c-3.2,0-5.4-2.6-5.4-5.7v-0.1c0-3.1,2.1-5.7,5.4-5.7C964.3,169.1,966.6,171.7,966.6,174.9L966.6,174.9z M987.3,168.6
				c-1.4-1.7-3.2-3-6.2-3c-4.2,0-8.1,3.1-8.1,8.4v0.1c0,5.2,3.9,8.3,8.1,8.3c2.9,0,4.8-1.4,6.3-3.2v1.4c0,3.6-2,5.4-5.6,5.4
				c-2.4,0-4.4-0.7-6.3-1.9l-1.5,3.1c2.3,1.4,5,2.1,8,2.1c3.2,0,5.7-0.8,7.3-2.4c1.5-1.5,2.3-3.7,2.3-6.7V166h-4.1v2.6H987.3z
				 M987.3,173.9c0,2.9-2.4,4.9-5.2,4.9s-5.1-2-5.1-4.9v-0.1c0-2.9,2.2-4.9,5.1-4.9S987.3,171,987.3,173.9L987.3,173.9z
				 M999.5,169.9v-4h-4.1v17.8h4.1v-6.8c0-4.7,2.5-7.1,6.1-7.1h0.2v-4.3C1002.7,165.4,1000.7,167.2,999.5,169.9z M1014.6,165.7
				c-2.8,0-4.8,0.6-6.7,1.5l1.1,3.2c1.6-0.7,3.1-1.1,5.1-1.1c2.9,0,4.4,1.4,4.4,3.9v0.4c-1.4-0.4-2.8-0.7-4.8-0.7
				c-4.4,0-7.4,1.9-7.4,5.7v0.1c0,3.6,3,5.5,6.3,5.5c2.7,0,4.6-1.1,5.8-2.6v2.2h4v-10.6c0-2.3-0.6-4.2-1.9-5.5
				C1019.3,166.4,1017.3,165.7,1014.6,165.7z M1018.6,177.3c0,2.3-2.1,3.8-4.8,3.8c-2,0-3.5-1-3.5-2.7v-0.1c0-1.9,1.6-3,4.2-3
				c1.6,0,3,0.3,4,0.7L1018.6,177.3L1018.6,177.3z M1047.2,165.5c-2.7,0-4.6,1.2-6,3.1c-0.9-1.9-2.8-3.1-5.3-3.1
				c-2.7,0-4.3,1.5-5.4,3.1v-2.7h-4.1v17.8h4.1v-10.1c0-2.7,1.6-4.4,3.8-4.4s3.6,1.6,3.6,4.3v10.2h4.1v-10.1c0-2.9,1.6-4.4,3.8-4.4
				c2.3,0,3.6,1.5,3.6,4.4v10.1h4.1v-11.4C1053.4,168,1051.1,165.5,1047.2,165.5z"/>
		</g>
	</g>
</g>
<g id="Shape_1_1_" class="st0">
	<g id="Shape_1">
		<g>
			<path class="st1" d="M935.3,6.5c-1.2-2.1-2.8-3.7-4.9-4.8C928.3,0.6,926.2,0,924,0s-4.3,0.6-6.4,1.7c-2.1,1.1-3.7,2.7-4.9,4.8
				S911,10.8,911,13s0.6,4.4,1.7,6.5c1.1,2.1,2.8,3.7,4.8,4.8c2.1,1.1,4.2,1.7,6.5,1.7s4.4-0.6,6.5-1.7s3.7-2.7,4.8-4.8
				s1.7-4.2,1.7-6.5C937,10.7,936.4,8.6,935.3,6.5z M933.4,18.4c-1,1.7-2.3,3.1-4,4c-1.7,1-3.5,1.4-5.4,1.4s-3.7-0.5-5.4-1.4
				c-1.7-1-3.1-2.3-4-4c-1-1.7-1.4-3.5-1.4-5.4s0.5-3.7,1.5-5.4s2.3-3.1,4.1-4c1.7-0.9,3.5-1.4,5.3-1.4s3.6,0.5,5.3,1.4
				s3.1,2.3,4.1,4s1.5,3.6,1.5,5.4C934.9,14.9,934.4,16.7,933.4,18.4z"/>
		</g>
	</g>
</g>
<g id="Rectangle_1_1_" class="st0">
	<g id="Rectangle_1_2_">
		<g>
			<rect x="649" y="143" class="st7" width="531" height="4"/>
		</g>
	</g>
</g>
<g id="Rectangle_2_1_" class="st0">
	<g id="Rectangle_2">
		<g>
			<rect x="590" y="81" class="st7" width="4" height="74"/>
		</g>
	</g>
</g>
<g id="R_1_" class="st0">
	<g id="R">
		<g>
			<path class="st1" d="M927.7,15.1c1.8-0.7,3.1-2.2,3.1-4.5l0,0c0-1.4-0.4-2.5-1.2-3.3c-1-1-2.4-1.5-4.2-1.5h-6.6v14.5h3.2v-4.6
				h2.5l3.1,4.6h3.7L927.7,15.1z M927.6,10.8c0,1.2-0.9,2-2.4,2H922V8.7h3.2C926.7,8.7,927.6,9.4,927.6,10.8L927.6,10.8z"/>
		</g>
	</g>
</g>
<g id="Group_1_1_">
	<g id="Layer_2_xA0_Image_1_" class="st8">
		
			<image style="display:inline;overflow:visible;enable-background:new    ;" width="158" height="158" id="Layer_2_xA0_Image" xlink:href="4188BAA6.png"  transform="matrix(1 0 0 1 1 22)">
		</image>
		<path class="st9" d="M119.6,169.1c-3.2,1.9-6.6,3.5-10.1,4.9L85,110.5L119.6,169.1z M87.7,111.6l33.5,56.6c2.5-1.5,5-3.2,7.3-5
			L87.7,111.6z M91.5,178.8l-8.9-57.7l3.9,58.2C88.2,179.2,89.9,179,91.5,178.8z M93.1,115.7l36.7,46.4c1.4-1.1,2.7-2.3,4-3.5
			L93.1,115.7z M93.1,111l46.8,41.3c1.5-1.7,2.9-3.4,4.2-5.3L93.1,111z M84.1,73.9l8.8-50.7c-1.1-0.2-2.2-0.3-3.3-0.4L84.1,73.9z
			 M83.6,111.9l14.5,65.6c3.3-0.8,6.6-1.7,9.8-2.9L83.6,111.9z M158.8,95.1c-0.3-4.4-1-8.7-2-12.8L89.6,99.5L158.8,95.1z M80.2,73.6
			l1.5-51.3c-0.5,0-0.9,0-1.4,0c-0.6,0-1.3,0-1.9,0L80.2,73.6z M99.8,103.1l58.4,9.1c0.3-1.7,0.4-3.5,0.6-5.2L99.8,103.1z
			 M95.6,104.2l60.9,16.7c0.6-2.3,1.1-4.6,1.5-6.9L95.6,104.2z M88.6,105.7l56.5,39.9c2.4-3.5,4.5-7.1,6.3-10.9L88.6,105.7z
			 M90.3,104.6l61.8,28.5c1.5-3.4,2.8-6.9,3.8-10.5L90.3,104.6z M83.4,88.3l19.9-62.7c-2.8-0.9-5.7-1.5-8.6-2.1L83.4,88.3z
			 M92.9,93.5l57-29.3c-1.2-2.3-2.5-4.5-3.9-6.6L92.9,93.5z M155,76.3l-53.6,18.3l54.9-14C155.9,79.1,155.5,77.7,155,76.3z
			 M137,46.4c-0.7-0.8-1.5-1.5-2.2-2.2l-34.5,36.7L137,46.4z M77.1,179.5l1.5-51.1l-4.8,50.9C74.9,179.4,76,179.5,77.1,179.5z
			 M158.9,105.2c0.1-1.4,0.1-2.9,0.1-4.3s0-2.8-0.1-4.1l-65,4.1L158.9,105.2z M83.4,22.3l-1.6,56.6l6.1-56.3
			C86.4,22.5,84.9,22.4,83.4,22.3z M94.3,114.4l40.8,43c1.3-1.2,2.5-2.5,3.7-3.8L94.3,114.4z M91.5,96.2l63-21.6
			c-1.1-3-2.3-6-3.8-8.9L91.5,96.2z M88,85.9l31-53.4c-1.8-1.1-3.7-2-5.7-2.9L88,85.9z M96.4,89L145,56.1c-1-1.4-2-2.8-3.1-4.1
			L96.4,89z M87.7,89.9l40.1-51.8c-2.3-1.7-4.7-3.4-7.2-4.8L87.7,89.9z M85.7,86.8l26.1-58c-2.2-1-4.5-1.8-6.9-2.6L85.7,86.8z
			 M98.4,85.1l42.4-34.4c-0.8-1-1.7-2-2.6-3L98.4,85.1z M92.2,87.1L133.6,43c-1.4-1.3-2.9-2.5-4.4-3.8L92.2,87.1z M85.4,128
			l7.8,50.6c1.1-0.2,2.1-0.4,3.2-0.6L85.4,128z M56.9,114.2l-45.9,24c0.5,1,1.1,2,1.7,2.9L56.9,114.2z M66.4,110.4l-52.8,32.2
			c1.1,1.8,2.3,3.6,3.6,5.3L66.4,110.4z M58.8,118.4l-40.5,30.9c0.7,0.8,1.3,1.7,2,2.5L58.8,118.4z M66.9,106.9L7.1,129.7
			c0.9,2.4,2,4.7,3.1,6.9L66.9,106.9z M69.5,102.9l-67.4,6.7c0.4,3.6,1,7.2,1.9,10.6L69.5,102.9z M72.3,110.7l-45.2,48.2
			c2.2,2.1,4.6,4,7.1,5.8L72.3,110.7z M64.5,106l-60,15.9c0.6,2.1,1.2,4.2,2,6.2L64.5,106z M75.6,118.6l-18.3,57.5
			c1.8,0.6,3.7,1.1,5.6,1.5L75.6,118.6z M51.4,174.1c1.4,0.5,2.8,1,4.2,1.5l17.1-53.7L51.4,174.1z M76.7,22.3
			c-3.2,0.1-6.3,0.5-9.4,1L79,88.7L76.7,22.3z M78.1,115.3L64.5,178c2.5,0.5,5,0.9,7.6,1.2L78.1,115.3z M80.7,118.9l-1.8,60.7
			c0.5,0,1,0,1.5,0c1.5,0,3-0.1,4.5-0.1L80.7,118.9z M52.6,102.8l-50.8,1.8c0.1,1.1,0.1,2.1,0.2,3.2L52.6,102.8z M21.5,153.1
			c1.4,1.6,2.8,3.1,4.4,4.5L68,112.8L21.5,153.1z M73,112.7l-37.4,52.9c2.2,1.5,4.5,3,6.9,4.3L73,112.7z M73.1,116.4l-29,54.4
			c1.9,1,3.8,1.9,5.7,2.7L73.1,116.4z M65.6,23.6c-2.5,0.5-5,1.1-7.4,1.8l18.7,61.2L65.6,23.6z M66,77.2L41,32.8
			c-0.9,0.5-1.8,1.1-2.7,1.7L66,77.2z M72.4,77.9l-15.9-52c-1.2,0.4-2.5,0.8-3.7,1.3L72.4,77.9z M75.2,90l-24-62.2
			c-3,1.2-5.9,2.6-8.7,4.1L75.2,90z M68.7,90L25.2,44.8c-1.6,1.6-3.2,3.3-4.7,5L68.7,90z M1.8,95.7c-0.1,1.7-0.2,3.4-0.2,5.2
			c0,0.7,0,1.3,0,2l63.2-2.3L1.8,95.7z M67.6,99.1L3.2,85.2C2.6,88.1,2.2,91,2,94L67.6,99.1z M62.1,91.5L11.6,62.6
			C10.8,64,10,65.5,9.3,67L62.1,91.5z M65,94.8L8.6,68.6c-0.9,2-1.7,4-2.5,6.1L65,94.8z M65.8,96.9L5.6,76.4c-0.8,2.3-1.4,4.7-2,7.1
			L65.8,96.9z M70.6,87.6L36.8,35.4c-1.8,1.2-3.6,2.5-5.3,3.9L70.6,87.6z M72.2,95.2L19.4,51.1c-2.6,3.1-4.9,6.4-6.9,9.9L72.2,95.2z
			 M66.5,85.3l-36.4-45c-1.2,1-2.4,2.1-3.6,3.2L66.5,85.3z"/>
	</g>
	<g id="TM_1_">
		<g>
			<path class="st10" d="M533.1,69.4h3.2v8.3h2.3v-8.3h3.2v-2.1h-8.6v2.1H533.1z M550.9,67.3l-2.7,4.4l-2.7-4.4H543v10.4h2.2v-6.8
				l2.9,4.4h0.1l2.9-4.4v6.8h2.3V67.3H550.9z"/>
		</g>
	</g>
	<g id="AMERICAN_ACADEMY" class="st8">
		<g class="st11">
			<path class="st10" d="M190.1,68.2l-10.5,21.1h2.7l2.7-5.5h12.5l2.7,5.5h2.8l-10.5-21.1H190.1z M186.1,81.6l5.2-10.7l5.2,10.7
				H186.1z M217.2,79.8l-8.4-11.4h-2.6v20.9h2.5V72.4l8.4,11.2h0.1l8.4-11.2v16.9h2.6V68.4h-2.6L217.2,79.8z M235.9,79.8h12.5v-2.2
				h-12.5v-7.1h14v-2.2h-16.6v20.9H250V87h-14.2v-7.2H235.9z M272.2,74.6L272.2,74.6c0-1.7-0.7-3.2-1.8-4.2
				c-1.4-1.3-3.7-2.1-6.5-2.1H254v20.9h2.6v-8.1h6.6l6.7,8.1h3.2l-7-8.5C269.5,80.1,272.2,78.1,272.2,74.6z M256.6,79v-8.5h7.1
				c3.7,0,5.9,1.6,5.9,4.1v0.1c0,2.7-2.5,4.3-5.9,4.3H256.6z M276.6,89.3h2.6V68.4h-2.6V89.3z M295.2,87.5c-5,0-8.9-3.8-8.9-8.6
				v-0.1c0-4.8,3.8-8.6,8.9-8.6c3.1,0,5.3,1.2,7.2,2.9l1.8-1.7c-2.3-2-4.8-3.3-8.9-3.3c-6.8,0-11.6,4.9-11.6,10.8V79
				c0,6,4.9,10.8,11.5,10.8c4.2,0,6.8-1.5,9.2-3.7l-1.7-1.5C300.4,86.4,298.3,87.5,295.2,87.5z M316,68.2l-10.5,21.1h2.7l2.7-5.5
				h12.5l2.7,5.5h2.8l-10.5-21.1H316z M311.9,81.6l5.2-10.7l5.2,10.7H311.9z M348.9,85.1l-14.5-16.8H332v20.9h2.5V72.1l14.8,17.2
				h2.1V68.4h-2.5V85.1z M373.7,68.2l-10.5,21.1h2.7l2.7-5.5h12.5l2.7,5.5h2.8l-10.5-21.1H373.7z M369.6,81.6l5.2-10.7l5.2,10.7
				H369.6z M399,87.5c-5,0-8.9-3.8-8.9-8.6v-0.1c0-4.8,3.8-8.6,8.9-8.6c3.1,0,5.3,1.2,7.2,2.9l1.8-1.7c-2.3-2-4.8-3.3-8.9-3.3
				c-6.8,0-11.6,4.9-11.6,10.8V79c0,6,4.9,10.8,11.5,10.8c4.2,0,6.8-1.5,9.2-3.7l-1.7-1.5C404.2,86.4,402.1,87.5,399,87.5z
				 M419.8,68.2l-10.5,21.1h2.7l2.7-5.5h12.5l2.7,5.5h2.8l-10.5-21.1H419.8z M415.7,81.6L421,71l5.2,10.7L415.7,81.6L415.7,81.6z
				 M443.8,68.4h-8v20.9h8c7.2,0,12.2-4.6,12.2-10.5v-0.1C456,72.9,451,68.4,443.8,68.4z M453.3,78.9c0,4.6-3.7,8.2-9.5,8.2h-5.4
				V70.6h5.4C449.6,70.6,453.3,74.2,453.3,78.9L453.3,78.9z M462.8,79.8h12.5v-2.2h-12.5v-7.1h14v-2.2h-16.6v20.9h16.7V87h-14.2
				v-7.2H462.8z M491.8,79.8l-8.4-11.4h-2.6v20.9h2.5V72.4l8.4,11.2h0.1l8.4-11.2v16.9h2.6V68.4h-2.6L491.8,79.8z M524.3,68.4
				l-7.8,10.5l-7.7-10.5h-3.1l9.5,12.6v8.3h2.6V81l9.5-12.6H524.3z"/>
		</g>
	</g>
	<g id="OF_OPHTHALMOLOGY" class="st8">
		<g class="st11">
			<path class="st10" d="M191.2,108c-6.9,0-11.5,5.5-11.5,11.8v0.1c0,6.3,4.6,11.7,11.5,11.7s11.5-5.5,11.5-11.8v-0.1
				C202.6,113.4,198,108,191.2,108z M200,119.8c0,5.2-3.7,9.3-8.8,9.3c-5.2,0-8.9-4.2-8.9-9.4v-0.1c0-5.2,3.7-9.3,8.8-9.3
				C196.3,110.4,200,114.6,200,119.8L200,119.8z M206.7,131.1h2.5v-9.9h12.2v-2.3h-12.2v-8.1h13.6v-2.4h-16.2L206.7,131.1
				L206.7,131.1z M245.4,108c-6.9,0-11.5,5.5-11.5,11.8v0.1c0,6.3,4.6,11.7,11.5,11.7s11.5-5.5,11.5-11.8v-0.1
				C256.9,113.4,252.3,108,245.4,108z M254.3,119.8c0,5.2-3.7,9.3-8.8,9.3s-8.9-4.2-8.9-9.4v-0.1c0-5.2,3.7-9.3,8.8-9.3
				C250.5,110.4,254.3,114.6,254.3,119.8L254.3,119.8z M269.4,108.4H261v22.7h2.5v-8h5.5c4.8,0,8.9-2.5,8.9-7.4v-0.1
				C277.9,111.1,274.5,108.4,269.4,108.4z M275.3,115.8c0,3-2.4,5-6.2,5h-5.6v-10h5.7C272.9,110.7,275.3,112.4,275.3,115.8
				L275.3,115.8z M296.8,118.5h-13v-10.1h-2.5v22.7h2.5v-10.2h13v10.2h2.5v-22.7h-2.5V118.5z M302.6,110.7h7.6v20.4h2.5v-20.4h7.6
				v-2.4h-17.7V110.7z M339.3,118.5h-13v-10.1h-2.5v22.7h2.5v-10.2h13v10.2h2.5v-22.7h-2.5V118.5z M355.2,108.2L345,131.1h2.6l2.7-6
				h12.3l2.6,6h2.7l-10.3-22.9C357.6,108.2,355.2,108.2,355.2,108.2z M351.2,122.8l5.2-11.6l5.1,11.6H351.2z M373.6,108.4H371v22.7
				h15.2v-2.4h-12.7v-20.3H373.6z M400.3,120.8l-8.2-12.4h-2.6v22.7h2.5v-18.4l8.2,12.1h0.1l8.2-12.2V131h2.5v-22.7h-2.6
				L400.3,120.8z M426.7,108c-6.9,0-11.5,5.5-11.5,11.8v0.1c0,6.3,4.6,11.7,11.5,11.7s11.5-5.5,11.5-11.8v-0.1
				C438.2,113.4,433.6,108,426.7,108z M435.5,119.8c0,5.2-3.7,9.3-8.8,9.3c-5.2,0-8.9-4.2-8.9-9.4v-0.1c0-5.2,3.7-9.3,8.8-9.3
				C431.8,110.4,435.5,114.6,435.5,119.8L435.5,119.8z M444.8,108.4h-2.5v22.7h15.2v-2.4h-12.7V108.4z M469.8,108
				c-6.9,0-11.5,5.5-11.5,11.8v0.1c0,6.3,4.6,11.7,11.5,11.7s11.5-5.5,11.5-11.8v-0.1C481.2,113.4,476.6,108,469.8,108z
				 M478.6,119.8c0,5.2-3.7,9.3-8.8,9.3s-8.9-4.2-8.9-9.4v-0.1c0-5.2,3.7-9.3,8.8-9.3C474.9,110.4,478.6,114.6,478.6,119.8
				L478.6,119.8z M495.5,121.3h6.9v5.7c-1.5,1.3-3.9,2.3-6.5,2.3c-5.5,0-8.9-4-8.9-9.5v-0.1c0-5.1,3.6-9.3,8.6-9.3
				c3.2,0,5.1,1.1,6.9,2.6l1.6-1.9c-2.3-1.9-4.6-3-8.4-3c-6.8,0-11.3,5.5-11.3,11.8v0.1c0,6.5,4.4,11.7,11.5,11.7c3.8,0,7-1.6,9-3.5
				V119h-9.3v2.3H495.5z M524.3,108.4l-7.7,11.4l-7.6-11.4h-3l9.4,13.7v9h2.6v-9l9.4-13.7C527.4,108.4,524.3,108.4,524.3,108.4z"/>
		</g>
	</g>
	<g id="Protecting_Sight." class="st8">
		<g class="st11">
			<path class="st10" d="M186.8,149.7H181V163h2.6v-4.3h2.9c3.3,0,5.9-1.6,5.9-4.6l0,0C192.4,151.5,190.2,149.7,186.8,149.7z
				 M189.7,154.3c0,1.4-1.2,2.4-3.2,2.4h-3v-4.8h3C188.5,151.8,189.7,152.7,189.7,154.3L189.7,154.3z M196.5,155.2V153h-2.6v10h2.6
				v-3.8c0-2.7,1.6-4,3.8-4h0.1v-2.4C198.5,152.7,197.2,153.7,196.5,155.2z M206.8,152.8c-3.4,0-6,2.4-6,5.3l0,0
				c0,2.9,2.5,5.2,5.9,5.2s6-2.4,6-5.2l0,0C212.7,155.1,210.2,152.8,206.8,152.8z M210.2,158.1c0,1.7-1.3,3.2-3.4,3.2
				c-2,0-3.4-1.5-3.4-3.2l0,0c0-1.8,1.3-3.2,3.4-3.2C208.7,154.8,210.2,156.3,210.2,158.1L210.2,158.1z M217.6,150.2H215v2.8h-1.4v2
				h1.4v5.3c0,2.2,1.3,3,3.2,3c1,0,1.7-0.2,2.3-0.5v-1.9c-0.5,0.2-1,0.3-1.6,0.3c-0.9,0-1.4-0.4-1.4-1.3V155h3v-2h-3v-2.8H217.6z
				 M226.8,152.8c-3.2,0-5.5,2.4-5.5,5.2l0,0c0,3.1,2.5,5.2,5.7,5.2c2.1,0,3.5-0.7,4.6-1.9l-1.5-1.2c-0.9,0.8-1.8,1.2-3,1.2
				c-1.6,0-2.9-0.9-3.2-2.6h8.2c0-0.2,0-0.4,0-0.6C232.2,155.3,230.4,152.8,226.8,152.8z M223.9,157.3c0.2-1.6,1.3-2.6,2.9-2.6
				c1.7,0,2.7,1.2,2.8,2.6H223.9z M239.2,161.2c-2,0-3.3-1.4-3.3-3.2l0,0c0-1.8,1.4-3.2,3.2-3.2c1.3,0,2.1,0.5,2.9,1.3l1.6-1.5
				c-1.1-1-2.4-1.7-4.5-1.7c-3.4,0-5.8,2.4-5.8,5.3l0,0c0,2.9,2.5,5.2,5.8,5.2c2.2,0,3.5-0.8,4.6-1.9l-1.5-1.4
				C241.3,160.8,240.4,161.2,239.2,161.2z M248.2,150.2h-2.6v2.8h-1.4v2h1.4v5.3c0,2.2,1.3,3,3.2,3c1,0,1.7-0.2,2.3-0.5v-1.9
				c-0.5,0.2-1,0.3-1.6,0.3c-0.9,0-1.4-0.4-1.4-1.3V155h3v-2h-3v-2.8H248.2z M253.1,163h2.6v-10h-2.6V163z M253.1,151.4h2.7v-2.2
				h-2.7V151.4z M264.3,152.8c-1.7,0-2.8,0.8-3.5,1.8V153h-2.6v10h2.6v-5.7c0-1.6,1-2.5,2.5-2.5s2.4,0.9,2.4,2.5v5.7h2.6v-6.4
				C268.2,154.3,266.8,152.8,264.3,152.8z M278.9,154.5c-0.9-0.9-2-1.7-3.9-1.7c-2.6,0-5.1,1.8-5.1,4.7l0,0c0,3,2.4,4.7,5.1,4.7
				c1.8,0,3-0.8,3.9-1.8v0.8c0,2-1.2,3.1-3.5,3.1c-1.5,0-2.8-0.4-4-1l-1,1.7c1.4,0.8,3.2,1.2,5,1.2c2,0,3.6-0.4,4.6-1.4
				c0.9-0.8,1.4-2.1,1.4-3.8v-8h-2.6v1.5H278.9z M278.9,157.5c0,1.6-1.5,2.8-3.3,2.8s-3.2-1.1-3.2-2.8l0,0c0-1.7,1.4-2.7,3.2-2.7
				C277.4,154.7,278.9,155.8,278.9,157.5L278.9,157.5z M295.4,155.3c-2.9-0.6-3.5-1.1-3.5-2.1l0,0c0-0.9,0.9-1.6,2.4-1.6
				c1.4,0,2.7,0.5,4,1.4l1.4-1.8c-1.5-1.1-3.2-1.7-5.4-1.7c-2.9,0-5.1,1.6-5.1,3.9l0,0c0,2.5,1.8,3.3,4.9,4c2.7,0.6,3.3,1.1,3.3,2
				l0,0c0,1-1,1.7-2.6,1.7c-1.8,0-3.3-0.6-4.7-1.7l-1.6,1.7c1.8,1.4,3.9,2.1,6.2,2.1c3.1,0,5.3-1.5,5.3-4l0,0
				C300.1,157,298.5,156,295.4,155.3z M302.1,163h2.6v-10h-2.6V163z M302.1,151.4h2.7v-2.2h-2.7V151.4z M315.6,154.5
				c-0.9-0.9-2-1.7-3.9-1.7c-2.6,0-5.1,1.8-5.1,4.7l0,0c0,3,2.4,4.7,5.1,4.7c1.8,0,3-0.8,3.9-1.8v0.8c0,2-1.2,3.1-3.5,3.1
				c-1.5,0-2.8-0.4-4-1l-1,1.7c1.4,0.8,3.2,1.2,5,1.2c2,0,3.6-0.4,4.6-1.4c0.9-0.8,1.4-2.1,1.4-3.8v-8h-2.6v1.5H315.6z M315.7,157.5
				c0,1.6-1.5,2.8-3.3,2.8s-3.2-1.1-3.2-2.8l0,0c0-1.7,1.4-2.7,3.2-2.7C314.2,154.7,315.7,155.8,315.7,157.5L315.7,157.5z
				 M326.6,152.8c-1.7,0-2.8,0.8-3.5,1.8v-5.4h-2.6V163h2.6v-5.7c0-1.6,1-2.5,2.5-2.5s2.4,0.9,2.4,2.5v5.7h2.6v-6.4
				C330.6,154.3,329.1,152.8,326.6,152.8z M335.9,150.2h-2.6v2.8h-1.4v2h1.4v5.3c0,2.2,1.3,3,3.2,3c1,0,1.7-0.2,2.3-0.5v-1.9
				c-0.5,0.2-1,0.3-1.6,0.3c-0.9,0-1.4-0.4-1.4-1.3V155h3v-2h-3v-2.8H335.9z M340.5,160.4v2.6h2.8v-2.6H340.5z"/>
		</g>
	</g>
	<g id="Empowering_Lives." class="st8">
		<g class="st11">
			<path class="st10" d="M351.5,157.4h7.3v-2.1h-7.3v-3.5h8.2v-2.1H349V163h10.9v-2.1h-8.3v-3.5H351.5z M374.6,152.8
				c-1.7,0-2.8,0.7-3.7,1.8c-0.6-1.1-1.7-1.8-3.3-1.8c-1.7,0-2.6,0.8-3.3,1.7V153h-2.5v10h2.5v-5.7c0-1.5,1-2.5,2.3-2.5
				c1.4,0,2.2,0.9,2.2,2.4v5.7h2.5v-5.7c0-1.6,1-2.5,2.3-2.5c1.4,0,2.2,0.9,2.2,2.5v5.7h2.5v-6.4C378.5,154.2,377,152.8,374.6,152.8
				z M386.9,152.8c-1.8,0-2.9,0.8-3.7,1.9V153h-2.5v13.1h2.5v-4.6c0.8,0.9,1.9,1.8,3.7,1.8c2.6,0,5.1-1.9,5.1-5.2l0,0
				C392,154.6,389.5,152.8,386.9,152.8z M389.5,158c0,2-1.4,3.2-3.1,3.2s-3.2-1.3-3.2-3.2l0,0c0-1.9,1.5-3.2,3.2-3.2
				C388,154.8,389.5,156,389.5,158L389.5,158z M399.1,152.8c-3.4,0-5.9,2.4-5.9,5.3l0,0c0,2.9,2.5,5.2,5.8,5.2
				c3.4,0,5.9-2.4,5.9-5.2l0,0C404.9,155.1,402.4,152.8,399.1,152.8z M402.4,158.1c0,1.7-1.3,3.2-3.3,3.2s-3.3-1.5-3.3-3.2l0,0
				c0-1.8,1.3-3.2,3.3-3.2C401,154.8,402.4,156.3,402.4,158.1L402.4,158.1z M417,159.9l-2.4-6.9h-2.2l-2.4,6.9l-2.2-6.9h-2.6
				l3.6,10.1h2.2l2.5-6.9l2.5,6.9h2.3l3.6-10.1h-2.5L417,159.9z M427.4,152.8c-3.1,0-5.4,2.4-5.4,5.2l0,0c0,3.1,2.5,5.2,5.6,5.2
				c2,0,3.4-0.7,4.5-1.9l-1.5-1.2c-0.9,0.8-1.7,1.2-3,1.2c-1.6,0-2.9-0.9-3.2-2.6h8.1c0-0.2,0-0.4,0-0.6
				C432.7,155.3,430.9,152.8,427.4,152.8z M424.6,157.3c0.2-1.6,1.3-2.6,2.8-2.6c1.7,0,2.6,1.2,2.8,2.6H424.6z M436.9,155.2V153
				h-2.5v10h2.5v-3.8c0-2.7,1.5-4,3.7-4h0.1v-2.4C438.9,152.7,437.6,153.7,436.9,155.2z M442.2,151.4h2.7v-2.2h-2.7V151.4z
				 M442.3,163h2.5v-10h-2.5V163z M453.2,152.8c-1.7,0-2.7,0.8-3.4,1.8V153h-2.5v10h2.5v-5.7c0-1.6,1-2.5,2.5-2.5s2.3,0.9,2.3,2.5
				v5.7h2.5v-6.4C457.1,154.3,455.7,152.8,453.2,152.8z M467.6,154.5c-0.9-0.9-2-1.7-3.8-1.7c-2.6,0-5,1.8-5,4.7l0,0
				c0,3,2.4,4.7,5,4.7c1.8,0,3-0.8,3.9-1.8v0.8c0,2-1.2,3.1-3.5,3.1c-1.5,0-2.7-0.4-3.9-1l-0.9,1.7c1.4,0.8,3.1,1.2,4.9,1.2
				c2,0,3.5-0.4,4.5-1.4c0.9-0.8,1.4-2.1,1.4-3.8v-8h-2.5v1.5H467.6z M467.6,157.5c0,1.6-1.5,2.8-3.2,2.8s-3.1-1.1-3.1-2.8l0,0
				c0-1.7,1.4-2.7,3.1-2.7C466.1,154.7,467.6,155.8,467.6,157.5L467.6,157.5z M480.7,149.7h-2.6V163h10.2v-2.1h-7.6V149.7z
				 M489.9,151.4h2.7v-2.2h-2.7V151.4z M490,163h2.5v-10H490V163z M499.6,160.4l-3-7.4h-2.7l4.5,10.1h2.3l4.5-10.1h-2.6L499.6,160.4
				z M510.6,152.8c-3.1,0-5.4,2.4-5.4,5.2l0,0c0,3.1,2.5,5.2,5.6,5.2c2,0,3.4-0.7,4.5-1.9l-1.5-1.2c-0.9,0.8-1.7,1.2-3,1.2
				c-1.6,0-2.9-0.9-3.2-2.6h8.1c0-0.2,0-0.4,0-0.6C515.9,155.3,514.1,152.8,510.6,152.8z M507.8,157.3c0.2-1.6,1.3-2.6,2.8-2.6
				c1.7,0,2.6,1.2,2.8,2.6H507.8z M522,157.1c-1.3-0.4-2.5-0.7-2.5-1.4l0,0c0-0.6,0.6-1,1.5-1s2,0.4,3.1,1l1-1.6
				c-1.2-0.7-2.7-1.1-4-1.1c-2.2,0-3.9,1.2-3.9,3.1l0,0c0,1.9,1.8,2.5,3.4,2.9c1.3,0.4,2.5,0.6,2.5,1.4l0,0c0,0.7-0.6,1.1-1.7,1.1
				c-1.1,0-2.4-0.4-3.6-1.2l-1.1,1.6c1.4,1,3.1,1.5,4.7,1.5c2.3,0,4.1-1,4.1-3.2l0,0C525.4,158.2,523.6,157.6,522,157.1z M527,160.4
				v2.6h2.8v-2.6H527z"/>
		</g>
	</g>
</g>
</svg>
